<?xml version="1.0" ?>
<!DOCTYPE svg  PUBLIC '-//W3C//DTD SVG 1.1//EN'  'http://www.w3.org/Graphics/SVG/1.1/DTD/svg11.dtd'>
<!-- Uploaded to: SVG Repo, www.svgrepo.com, Generator: SVG Repo Mixer Tools -->
<svg width="800px" height="800px" viewBox="0 0 32 32" enable-background="new 0 0 32 32" version="1.1" xml:space="preserve" xmlns="http://www.w3.org/2000/svg" xmlns:xlink="http://www.w3.org/1999/xlink">
<g id="Layer_2"/>
<g id="Layer_3"/>
<g id="Layer_4"/>
<g id="Layer_5"/>
<g id="Layer_6"/>
<g id="Layer_7"/>
<g id="Layer_8"/>
<g id="Layer_9"/>
<g id="Layer_10">
<g>
<path d="M9,31c-0.2559,0-0.5117-0.0977-0.707-0.293c-0.3906-0.3906-0.3906-1.0234,0-1.4141l7-7    c0.3906-0.3906,1.0234-0.3906,1.4141,0s0.3906,1.0234,0,1.4141l-7,7C9.5117,30.9023,9.2559,31,9,31z" fill="#00ACBA"/>
</g>
<g>
<path d="M23,31c-0.2559,0-0.5117-0.0977-0.707-0.293l-7-7c-0.3906-0.3906-0.3906-1.0234,0-1.4141    s1.0234-0.3906,1.4141,0l7,7c0.3906,0.3906,0.3906,1.0234,0,1.4141C23.5117,30.9023,23.2559,31,23,31z" fill="#00ACBA"/>
</g>
<g>
<path d="M16,6c-0.5522,0-1-0.4473-1-1V2c0-0.5527,0.4478-1,1-1s1,0.4473,1,1v3C17,5.5527,16.5522,6,16,6z" fill="#00ACBA"/>
</g>
<g>
<path d="M28,24H4c-1.6543,0-3-1.3457-3-3V7c0-1.6543,1.3457-3,3-3h24c1.6543,0,3,1.3457,3,3v14    C31,22.6543,29.6543,24,28,24z M4,6C3.4487,6,3,6.4482,3,7v14c0,0.5518,0.4487,1,1,1h24c0.5513,0,1-0.4482,1-1V7    c0-0.5518-0.4487-1-1-1H4z" fill="#0181B0"/>
</g>
<g>
<path d="M11,20H7c-0.5522,0-1-0.4473-1-1v-5c0-0.5527,0.4478-1,1-1h4c0.5522,0,1,0.4473,1,1v5    C12,19.5527,11.5522,20,11,20z M8,18h2v-3H8V18z" fill="#F5D803"/>
</g>
<g>
<path d="M25,20h-4c-0.5522,0-1-0.4473-1-1V9c0-0.5527,0.4478-1,1-1h4c0.5522,0,1,0.4473,1,1v10    C26,19.5527,25.5522,20,25,20z M22,18h2v-8h-2V18z" fill="#F5D803"/>
</g>
<g>
<path d="M18,20h-4c-0.5522,0-1-0.4473-1-1v-8c0-0.5527,0.4478-1,1-1h4c0.5522,0,1,0.4473,1,1v8    C19,19.5527,18.5522,20,18,20z M15,18h2v-6h-2V18z" fill="#F5D803"/>
</g>
</g>
<g id="Layer_11"/>
<g id="Layer_12"/>
<g id="Layer_13"/>
<g id="Layer_14"/>
<g id="Layer_15"/>
<g id="Layer_16"/>
<g id="Layer_17"/>
<g id="Layer_18"/>
<g id="Layer_19"/>
<g id="Layer_20"/>
<g id="Layer_21"/>
<g id="Layer_22"/>
<g id="Layer_23"/>
<g id="Layer_24"/>
<g id="Layer_25"/>
<g id="Layer_26"/>
</svg>