<?xml version="1.0" ?>
<!DOCTYPE svg  PUBLIC '-//W3C//DTD SVG 1.1//EN'  'http://www.w3.org/Graphics/SVG/1.1/DTD/svg11.dtd'>
<!-- Uploaded to: SVG Repo, www.svgrepo.com, Generator: SVG Repo Mixer Tools -->
<svg width="800px" height="800px" viewBox="0 0 32 32" enable-background="new 0 0 32 32" version="1.1" xml:space="preserve" xmlns="http://www.w3.org/2000/svg" xmlns:xlink="http://www.w3.org/1999/xlink">
<g id="Desktop25">
<g>
<path d="M31,4v24c0,1.65-1.35,3-3,3H4c-1.65,0-3-1.35-3-3V4c0-1.65,1.35-3,3-3h24C29.65,1,31,2.35,31,4z" fill="#3F51B5"/>
</g>
<g>
<path d="M20,28h-8c-0.5527,0-1-0.4473-1-1s0.4473-1,1-1h8c0.5527,0,1,0.4473,1,1S20.5527,28,20,28z" fill="#FFC10A"/>
</g>
<g>
<path d="M27,5v19c0,0.55-0.45,1-1,1H6c-0.55,0-1-0.45-1-1V5c0-0.55,0.45-1,1-1h20C26.55,4,27,4.45,27,5z" fill="#2197F3"/>
</g>
</g>
<g id="Desktop24"/>
<g id="Desktop23"/>
<g id="Desktop22"/>
<g id="Desktop21"/>
<g id="Desktop20"/>
<g id="Desktop19"/>
<g id="Desktop18"/>
<g id="Desktop17"/>
<g id="Desktop16"/>
<g id="Desktop15"/>
<g id="Desktop14"/>
<g id="Desktop13"/>
<g id="Desktop12"/>
<g id="Desktop11"/>
<g id="Desktop10"/>
<g id="Desktop09"/>
<g id="Desktop08"/>
<g id="Desktop07"/>
<g id="Desktop06"/>
<g id="Desktop05"/>
<g id="Desktop04"/>
<g id="Desktop03"/>
<g id="Desktop02"/>
<g id="Desktop01"/>
</svg>