<?xml version="1.0" ?>
<!DOCTYPE svg  PUBLIC '-//W3C//DTD SVG 1.1//EN'  'http://www.w3.org/Graphics/SVG/1.1/DTD/svg11.dtd'>
<!-- Uploaded to: SVG Repo, www.svgrepo.com, Generator: SVG Repo Mixer Tools -->
<svg width="800px" height="800px" viewBox="0 0 32 32" enable-background="new 0 0 32 32" version="1.1" xml:space="preserve" xmlns="http://www.w3.org/2000/svg" xmlns:xlink="http://www.w3.org/1999/xlink">
<g id="Desktop25"/>
<g id="Desktop24"/>
<g id="Desktop23"/>
<g id="Desktop22">
<g>
<path d="M31,8v16c0,1.65-1.35,3-3,3H4c-1.65,0-3-1.35-3-3V8c0-1.65,1.35-3,3-3h24C29.65,5,31,6.35,31,8z" fill="#3F51B5"/>
</g>
<g>
<path d="M27,14v8c0,1.1-0.9,2-2,2H7c-1.1,0-2-0.9-2-2v-8c0-1.1,0.9-2,2-2h18C26.1,12,27,12.9,27,14z" fill="#2197F3"/>
</g>
<g>
<path d="M6,11c-0.2559,0-0.5117-0.0977-0.707-0.293l-1-1c-0.3906-0.3906-0.3906-1.0234,0-1.4141    s1.0234-0.3906,1.4141,0l1,1c0.3906,0.3906,0.3906,1.0234,0,1.4141C6.5117,10.9023,6.2559,11,6,11z" fill="#FFC10A"/>
</g>
<g>
<path d="M26,11c-0.2559,0-0.5117-0.0977-0.707-0.293c-0.3906-0.3906-0.3906-1.0234,0-1.4141l1-1    c0.3906-0.3906,1.0234-0.3906,1.4141,0s0.3906,1.0234,0,1.4141l-1,1C26.5117,10.9023,26.2559,11,26,11z" fill="#FFC10A"/>
</g>
</g>
<g id="Desktop21"/>
<g id="Desktop20"/>
<g id="Desktop19"/>
<g id="Desktop18"/>
<g id="Desktop17"/>
<g id="Desktop16"/>
<g id="Desktop15"/>
<g id="Desktop14"/>
<g id="Desktop13"/>
<g id="Desktop12"/>
<g id="Desktop11"/>
<g id="Desktop10"/>
<g id="Desktop09"/>
<g id="Desktop08"/>
<g id="Desktop07"/>
<g id="Desktop06"/>
<g id="Desktop05"/>
<g id="Desktop04"/>
<g id="Desktop03"/>
<g id="Desktop02"/>
<g id="Desktop01"/>
</svg>