<?xml version="1.0" ?>
<!DOCTYPE svg  PUBLIC '-//W3C//DTD SVG 1.1//EN'  'http://www.w3.org/Graphics/SVG/1.1/DTD/svg11.dtd'>
<!-- Uploaded to: SVG Repo, www.svgrepo.com, Generator: SVG Repo Mixer Tools -->
<svg width="800px" height="800px" viewBox="0 0 32 32" enable-background="new 0 0 32 32" version="1.1" xml:space="preserve" xmlns="http://www.w3.org/2000/svg" xmlns:xlink="http://www.w3.org/1999/xlink">
<g id="Desktop25"/>
<g id="Desktop24"/>
<g id="Desktop23"/>
<g id="Desktop22"/>
<g id="Desktop21">
<g>
<path d="M31,12v16c0,1.65-1.35,3-3,3H4c-1.65,0-3-1.35-3-3V12c0-1.65,1.35-3,3-3h24C29.65,9,31,10.35,31,12z" fill="#3F51B5"/>
</g>
<g>
<path d="M31,4c0,0.38-0.21,0.72-0.55,0.89l-4,2C26.31,6.96,26.16,7,26,7H4C2.35,7,1,5.65,1,4c0-1.65,1.35-3,3-3h22    c0.16,0,0.31,0.04,0.45,0.11l4,2C30.79,3.28,31,3.62,31,4z" fill="#2197F3"/>
</g>
<g>
<path d="M23,14v12c0,0.55-0.45,1-1,1H6c-0.55,0-1-0.45-1-1V14c0-0.55,0.45-1,1-1h16C22.55,13,23,13.45,23,14z" fill="#2197F3"/>
</g>
<g>
<path d="M26,19c-0.5522,0-1-0.4473-1-1v-4c0-0.5527,0.4478-1,1-1s1,0.4473,1,1v4C27,18.5527,26.5522,19,26,19z" fill="#FFC10A"/>
</g>
<g>
<path d="M26,27c-0.5522,0-1-0.4473-1-1v-4c0-0.5527,0.4478-1,1-1s1,0.4473,1,1v4C27,26.5527,26.5522,27,26,27z" fill="#FFC10A"/>
</g>
</g>
<g id="Desktop20"/>
<g id="Desktop19"/>
<g id="Desktop18"/>
<g id="Desktop17"/>
<g id="Desktop16"/>
<g id="Desktop15"/>
<g id="Desktop14"/>
<g id="Desktop13"/>
<g id="Desktop12"/>
<g id="Desktop11"/>
<g id="Desktop10"/>
<g id="Desktop09"/>
<g id="Desktop08"/>
<g id="Desktop07"/>
<g id="Desktop06"/>
<g id="Desktop05"/>
<g id="Desktop04"/>
<g id="Desktop03"/>
<g id="Desktop02"/>
<g id="Desktop01"/>
</svg>