<?xml version="1.0" ?>
<!DOCTYPE svg  PUBLIC '-//W3C//DTD SVG 1.1//EN'  'http://www.w3.org/Graphics/SVG/1.1/DTD/svg11.dtd'>
<!-- Uploaded to: SVG Repo, www.svgrepo.com, Generator: SVG Repo Mixer Tools -->
<svg width="800px" height="800px" viewBox="0 0 32 32" enable-background="new 0 0 32 32" version="1.1" xml:space="preserve" xmlns="http://www.w3.org/2000/svg" xmlns:xlink="http://www.w3.org/1999/xlink">
<g id="Desktop25"/>
<g id="Desktop24"/>
<g id="Desktop23"/>
<g id="Desktop22"/>
<g id="Desktop21"/>
<g id="Desktop20"/>
<g id="Desktop19"/>
<g id="Desktop18"/>
<g id="Desktop17"/>
<g id="Desktop16">
<g>
<path d="M30,21c-0.5522,0-1-0.4473-1-1v-4c0-7.168-5.8315-13-13-13S3,8.832,3,16v4c0,0.5527-0.4478,1-1,1    s-1-0.4473-1-1v-4C1,7.7285,7.729,1,16,1s15,6.7285,15,15v4C31,20.5527,30.5522,21,30,21z" fill="#3F51B5"/>
</g>
<g>
<path d="M6,20v8c0,0.55-0.45,1-1,1H2c-0.55,0-1-0.45-1-1v-8c0-0.55,0.45-1,1-1h3C5.55,19,6,19.45,6,20z" fill="#2197F3"/>
</g>
<g>
<path d="M31,20v8c0,0.55-0.45,1-1,1h-3c-0.55,0-1-0.45-1-1v-8c0-0.55,0.45-1,1-1h3C30.55,19,31,19.45,31,20z" fill="#2197F3"/>
</g>
<g>
<path d="M11,20v8c0,1.65-1.35,3-3,3H7c-1.65,0-3-1.35-3-3v-8c0-1.65,1.35-3,3-3h1C9.65,17,11,18.35,11,20z" fill="#FFC10A"/>
</g>
<g>
<path d="M28,20v8c0,1.65-1.35,3-3,3h-1c-1.65,0-3-1.35-3-3v-8c0-1.65,1.35-3,3-3h1C26.65,17,28,18.35,28,20z" fill="#FFC10A"/>
</g>
</g>
<g id="Desktop15"/>
<g id="Desktop14"/>
<g id="Desktop13"/>
<g id="Desktop12"/>
<g id="Desktop11"/>
<g id="Desktop10"/>
<g id="Desktop09"/>
<g id="Desktop08"/>
<g id="Desktop07"/>
<g id="Desktop06"/>
<g id="Desktop05"/>
<g id="Desktop04"/>
<g id="Desktop03"/>
<g id="Desktop02"/>
<g id="Desktop01"/>
</svg>