<?xml version="1.0" ?>
<!DOCTYPE svg  PUBLIC '-//W3C//DTD SVG 1.1//EN'  'http://www.w3.org/Graphics/SVG/1.1/DTD/svg11.dtd'>
<!-- Uploaded to: SVG Repo, www.svgrepo.com, Generator: SVG Repo Mixer Tools -->
<svg width="800px" height="800px" viewBox="0 0 32 32" enable-background="new 0 0 32 32" version="1.1" xml:space="preserve" xmlns="http://www.w3.org/2000/svg" xmlns:xlink="http://www.w3.org/1999/xlink">
<g id="Desktop25"/>
<g id="Desktop24"/>
<g id="Desktop23">
<g>
<path d="M31,19v3c0,2.76-2.24,5-5,5H6c-2.76,0-5-2.24-5-5v-3c0-1.65,1.35-3,3-3h5c0.55,0,1,0.45,1,1v3    c0,0.55,0.45,1,1,1h10c0.55,0,1-0.45,1-1v-3c0-0.55,0.45-1,1-1h5C29.65,16,31,17.35,31,19z" fill="#3F51B5"/>
</g>
<g>
<path d="M24,14c-0.2393,0-0.4795-0.085-0.6709-0.2588c-4.041-3.6543-10.6172-3.6543-14.6582,0    c-0.4097,0.3721-1.042,0.3379-1.4126-0.0703c-0.3706-0.4092-0.3389-1.042,0.0708-1.4121c4.7822-4.3262,12.5615-4.3252,17.3418,0    c0.4092,0.3701,0.4414,1.0029,0.0703,1.4121C24.5439,13.8887,24.2725,14,24,14z" fill="#FFC10A"/>
</g>
<g>
<path d="M25.999,10c-0.2031,0-0.4082-0.0615-0.585-0.1895c-5.1914-3.7578-13.6372-3.7578-18.8276,0    c-0.4482,0.3232-1.0728,0.2236-1.3965-0.2246C4.8662,9.1387,4.9663,8.5137,5.4136,8.1895c5.8379-4.2227,15.3364-4.2227,21.1724,0    c0.4473,0.3242,0.5479,0.9492,0.2246,1.3965C26.6143,9.8564,26.3086,10,25.999,10z" fill="#FFC10A"/>
</g>
</g>
<g id="Desktop22"/>
<g id="Desktop21"/>
<g id="Desktop20"/>
<g id="Desktop19"/>
<g id="Desktop18"/>
<g id="Desktop17"/>
<g id="Desktop16"/>
<g id="Desktop15"/>
<g id="Desktop14"/>
<g id="Desktop13"/>
<g id="Desktop12"/>
<g id="Desktop11"/>
<g id="Desktop10"/>
<g id="Desktop09"/>
<g id="Desktop08"/>
<g id="Desktop07"/>
<g id="Desktop06"/>
<g id="Desktop05"/>
<g id="Desktop04"/>
<g id="Desktop03"/>
<g id="Desktop02"/>
<g id="Desktop01"/>
</svg>