<?xml version="1.0" ?>
<!DOCTYPE svg  PUBLIC '-//W3C//DTD SVG 1.1//EN'  'http://www.w3.org/Graphics/SVG/1.1/DTD/svg11.dtd'>
<!-- Uploaded to: SVG Repo, www.svgrepo.com, Generator: SVG Repo Mixer Tools -->
<svg width="800px" height="800px" viewBox="0 0 32 32" enable-background="new 0 0 32 32" version="1.1" xml:space="preserve" xmlns="http://www.w3.org/2000/svg" xmlns:xlink="http://www.w3.org/1999/xlink">
<g id="Desktop25"/>
<g id="Desktop24"/>
<g id="Desktop23"/>
<g id="Desktop22"/>
<g id="Desktop21"/>
<g id="Desktop20"/>
<g id="Desktop19"/>
<g id="Desktop18"/>
<g id="Desktop17">
<g>
<path d="M27,7c0,2.21-1.79,4-4,4c-0.55,0-1-0.45-1-1V4c0-0.55,0.45-1,1-1C25.21,3,27,4.79,27,7z" fill="#FFC10A"/>
</g>
<g>
<path d="M10,27c-0.5522,0-1-0.4473-1-1V11c0-2.7568,2.2432-5,5-5c0.5522,0,1,0.4473,1,1s-0.4478,1-1,1    c-1.6543,0-3,1.3457-3,3v15C11,26.5527,10.5522,27,10,27z" fill="#3F51B5"/>
</g>
<g>
<path d="M27,29v1c0,0.55-0.45,1-1,1H6c-0.55,0-1-0.45-1-1v-1c0-2.21,1.79-4,4-4h14C25.21,25,27,26.79,27,29z" fill="#3F51B5"/>
</g>
<g>
<path d="M24,2v10c0,0.55-0.45,1-1,1h-4c-1.6,0-3.1-0.62-4.24-1.75C13.62,10.1,13,8.6,13,7c0-3.31,2.69-6,6-6h4    C23.55,1,24,1.45,24,2z" fill="#2197F3"/>
</g>
</g>
<g id="Desktop16"/>
<g id="Desktop15"/>
<g id="Desktop14"/>
<g id="Desktop13"/>
<g id="Desktop12"/>
<g id="Desktop11"/>
<g id="Desktop10"/>
<g id="Desktop09"/>
<g id="Desktop08"/>
<g id="Desktop07"/>
<g id="Desktop06"/>
<g id="Desktop05"/>
<g id="Desktop04"/>
<g id="Desktop03"/>
<g id="Desktop02"/>
<g id="Desktop01"/>
</svg>