<?xml version="1.0" ?>
<!DOCTYPE svg  PUBLIC '-//W3C//DTD SVG 1.1//EN'  'http://www.w3.org/Graphics/SVG/1.1/DTD/svg11.dtd'>
<!-- Uploaded to: SVG Repo, www.svgrepo.com, Generator: SVG Repo Mixer Tools -->
<svg width="800px" height="800px" viewBox="0 0 32 32" enable-background="new 0 0 32 32" version="1.1" xml:space="preserve" xmlns="http://www.w3.org/2000/svg" xmlns:xlink="http://www.w3.org/1999/xlink">
<g id="Layer_2"/>
<g id="Layer_3"/>
<g id="Layer_4"/>
<g id="Layer_5"/>
<g id="Layer_6"/>
<g id="Layer_7"/>
<g id="Layer_8"/>
<g id="Layer_9"/>
<g id="Layer_10"/>
<g id="Layer_11"/>
<g id="Layer_12"/>
<g id="Layer_13"/>
<g id="Layer_14"/>
<g id="Layer_15"/>
<g id="Layer_16"/>
<g id="Layer_17"/>
<g id="Layer_18"/>
<g id="Layer_19"/>
<g id="Layer_20"/>
<g id="Layer_21"/>
<g id="Layer_22">
<g>
<path d="M16,17c-0.1143,0-0.2275-0.0195-0.3359-0.0581l-14-5C1.2656,11.7998,1,11.4229,1,11    s0.2656-0.7998,0.6641-0.9419l14-5c0.2168-0.0771,0.4551-0.0771,0.6719,0l14,5C30.7344,10.2002,31,10.5771,31,11    s-0.2656,0.7998-0.6641,0.9419l-14,5C16.2275,16.9805,16.1143,17,16,17z M4.9736,11L16,14.938L27.0264,11L16,7.062L4.9736,11z" fill="#0181B0"/>
</g>
<g>
<g>
<path d="M16,22.0005c-0.1113,0-0.2256-0.019-0.3359-0.0586l-14-5c-0.5205-0.186-0.792-0.7583-0.6055-1.2783     c0.1846-0.5195,0.7578-0.792,1.2773-0.6055l14,5c0.5205,0.186,0.792,0.7583,0.6055,1.2783     C16.7959,21.7451,16.4111,22.0005,16,22.0005z" fill="#F5D803"/>
</g>
<g>
<path d="M16,22.0005c-0.4111,0-0.7959-0.2554-0.9414-0.6641c-0.1865-0.52,0.085-1.0923,0.6055-1.2783l14-5     c0.5166-0.186,1.0918,0.0859,1.2773,0.6055c0.1865,0.52-0.085,1.0923-0.6055,1.2783l-14,5     C16.2256,21.9814,16.1113,22.0005,16,22.0005z" fill="#F5D803"/>
</g>
</g>
<g>
<g>
<path d="M16,27.0005c-0.1113,0-0.2256-0.019-0.3359-0.0586l-14-5c-0.5205-0.186-0.792-0.7583-0.6055-1.2783     c0.1846-0.5195,0.7578-0.792,1.2773-0.6055l14,5c0.5205,0.186,0.792,0.7583,0.6055,1.2783     C16.7959,26.7451,16.4111,27.0005,16,27.0005z" fill="#F5D803"/>
</g>
<g>
<path d="M16,27.0005c-0.4111,0-0.7959-0.2554-0.9414-0.6641c-0.1865-0.52,0.085-1.0923,0.6055-1.2783l14-5     c0.5166-0.1855,1.0918,0.0859,1.2773,0.6055c0.1865,0.52-0.085,1.0923-0.6055,1.2783l-14,5     C16.2256,26.9814,16.1113,27.0005,16,27.0005z" fill="#F5D803"/>
</g>
</g>
</g>
<g id="Layer_23"/>
<g id="Layer_24"/>
<g id="Layer_25"/>
<g id="Layer_26"/>
</svg>