<?xml version="1.0" ?>
<!-- Uploaded to: SVG Repo, www.svgrepo.com, Generator: SVG Repo Mixer Tools -->
<svg width="800px" height="800px" viewBox="0 0 64 64" id="TwoTone" xmlns="http://www.w3.org/2000/svg">
<title/>
<desc/>
<g data-name="Stroke copy 3" id="Stroke_copy_3">
<path d="M43,18V30a6,6,0,0,1,0,12V54a18,18,0,0,0,0-36Z" style="fill:#a8dba8"/>
<path d="M34,53A24,24,0,0,1,10,29V7H3V57a4,4,0,0,0,4,4H43V53Z" style="fill:#cff09e"/>
<path d="M7,3H43a0,0,0,0,1,0,0v8a0,0,0,0,1,0,0H7A4,4,0,0,1,3,7V7A4,4,0,0,1,7,3Z" style="fill:#a8dba8"/>
<path d="M16,23V35.35A6,6,0,1,0,20,41V29H32V41.35A6,6,0,1,0,36,47V23ZM14,43a2,2,0,1,1,2-2A2,2,0,0,1,14,43Zm16,6a2,2,0,1,1,2-2A2,2,0,0,1,30,49Z" style="fill:#79bd9a"/>
</g>
<g data-name="Stroke Close copy 3" id="Stroke_Close_copy_3">
<path d="M9,8H19a1,1,0,0,0,0-2H9A1,1,0,0,0,9,8Z" style="fill:#3b8686"/>
<path d="M62,36A19,19,0,0,0,44,17.05V3a1,1,0,0,0-1-1H7A5,5,0,0,0,2,7V57a5,5,0,0,0,5,5H43a1,1,0,0,0,1-1V55A19,19,0,0,0,62,36ZM44,31.1a5,5,0,0,1,0,9.8ZM7,4H42V6H23a1,1,0,0,0,0,2H42v2H7A3,3,0,0,1,7,4ZM42,60H7a3,3,0,0,1-3-3V11a4.92,4.92,0,0,0,3,1H42Zm2-7v-10a7,7,0,0,0,0-13.84v-10A17,17,0,0,1,44,53Z" style="fill:#3b8686"/>
<path d="M49.4,24.69a1,1,0,0,0-1.37.38,1,1,0,0,0,.38,1.36A11,11,0,0,1,54,36a.49.49,0,0,1,0,.12,1,1,0,0,0,1,1h0a1,1,0,0,0,1-.95A.62.62,0,0,0,56,36,13,13,0,0,0,49.4,24.69Z" style="fill:#3b8686"/>
<path d="M53.93,41a1,1,0,0,0-1.36.38,11,11,0,0,1-5.9,5,1,1,0,0,0,.33,2,1,1,0,0,0,.33-.06,13.07,13.07,0,0,0,7-5.86A1,1,0,0,0,53.93,41Z" style="fill:#3b8686"/>
<path d="M36,22H16a1,1,0,0,0-1,1V34.07A6.73,6.73,0,0,0,14,34a7,7,0,1,0,7,7V30H31V40.07A6.73,6.73,0,0,0,30,40a7,7,0,1,0,7,7V23A1,1,0,0,0,36,22ZM35,47a5,5,0,1,1-5-5,5.1,5.1,0,0,1,1.67.29A1,1,0,0,0,33,41.35V29a1,1,0,0,0-1-1H20a1,1,0,0,0-1,1V41a5,5,0,1,1-5-5,5.1,5.1,0,0,1,1.67.29A1,1,0,0,0,17,35.35V24H35Z" style="fill:#3b8686"/>
<path d="M14,38a3,3,0,1,0,3,3A3,3,0,0,0,14,38Zm0,4a1,1,0,1,1,1-1A1,1,0,0,1,14,42Z" style="fill:#3b8686"/>
<path d="M30,44a3,3,0,1,0,3,3A3,3,0,0,0,30,44Zm0,4a1,1,0,1,1,1-1A1,1,0,0,1,30,48Z" style="fill:#3b8686"/>
</g>
</svg>