<?xml version="1.0" encoding="utf-8"?><!-- Uploaded to: SVG Repo, www.svgrepo.com, Generator: SVG Repo Mixer Tools -->
<svg width="800px" height="800px" viewBox="0 0 48 48" xmlns="http://www.w3.org/2000/svg"><title>24 Technology Devices icons</title><path d="M9,12H39a2,2,0,0,1,2,2V34a2,2,0,0,1-2,2H9a8,8,0,0,1-8-8V20a8,8,0,0,1,8-8Z" fill="none" stroke="#000000" stroke-miterlimit="10" stroke-width="2"/><path d="M42,18h4a1,1,0,0,1,1,1V29a1,1,0,0,1-1,1H42" fill="none" stroke="#000000" stroke-miterlimit="10" stroke-width="2"/><path d="M29,31H12a4,4,0,0,1-4-4V21a4,4,0,0,1,4-4H25Z" fill="none" stroke="#000000" stroke-linejoin="round" stroke-width="2"/><rect width="48" height="48" fill="none"/></svg>