<?xml version="1.0" ?>
<!-- Uploaded to: SVG Repo, www.svgrepo.com, Generator: SVG Repo Mixer Tools -->
<svg width="800px" height="800px" viewBox="0 0 64 64" id="TwoTone" xmlns="http://www.w3.org/2000/svg">
<title/>
<desc/>
<g data-name="Stroke copy 3" id="Stroke_copy_3">
<path d="M43,53A24,24,0,0,1,19,29V7H12V57a4,4,0,0,0,4,4H52V53Z" style="fill:#cff09e"/>
<path d="M16,3H52a0,0,0,0,1,0,0v8a0,0,0,0,1,0,0H16a4,4,0,0,1-4-4V7a4,4,0,0,1,4-4Z" style="fill:#a8dba8"/>
<path d="M28,46h8a0,0,0,0,1,0,0v0a4,4,0,0,1-4,4h0a4,4,0,0,1-4-4v0A0,0,0,0,1,28,46Z" style="fill:#79bd9a"/>
<path d="M40,40V32a8,8,0,0,0-16,0v8l-3,6H43Z" style="fill:#a8dba8"/>
</g>
<g data-name="Stroke Close copy 3" id="Stroke_Close_copy_3">
<path d="M52,2H16a5,5,0,0,0-5,5V57a5,5,0,0,0,5,5H52a1,1,0,0,0,1-1V3A1,1,0,0,0,52,2ZM16,4H51V6H32a1,1,0,0,0,0,2H51v2H16a3,3,0,0,1,0-6Zm0,56a3,3,0,0,1-3-3V11a4.92,4.92,0,0,0,3,1H51V60Z" style="fill:#3b8686"/>
<path d="M46.53,27.12l-5.72,3.05A9,9,0,0,0,36,24V23a4,4,0,0,0-8,0V24A9,9,0,0,0,23,32v7.67l-6.47,3.45a1,1,0,1,0,.94,1.76l4.05-2.16-1.41,2.83A1,1,0,0,0,21,47h6.1a5,5,0,0,0,9.8,0H43a1,1,0,0,0,.89-1.45L41,39.76V32.33l6.47-3.45a1,1,0,1,0-.94-1.76ZM30,23a2,2,0,0,1,4,0v.23a8.81,8.81,0,0,0-4,0Zm-5,9a7,7,0,0,1,14-.84L25,38.6Zm7,17a3,3,0,0,1-2.83-2h5.66A3,3,0,0,1,32,49Zm7.11-8.55L41.38,45H22.62l1.95-3.9L39,33.4V40A1,1,0,0,0,39.11,40.45Z" style="fill:#3b8686"/>
<path d="M18,8H28a1,1,0,0,0,0-2H18a1,1,0,0,0,0,2Z" style="fill:#3b8686"/>
</g>
</svg>