<?xml version="1.0" ?>
<!DOCTYPE svg  PUBLIC '-//W3C//DTD SVG 1.1//EN'  'http://www.w3.org/Graphics/SVG/1.1/DTD/svg11.dtd'>
<!-- Uploaded to: SVG Repo, www.svgrepo.com, Generator: SVG Repo Mixer Tools -->
<svg width="800px" height="800px" viewBox="0 0 32 32" enable-background="new 0 0 32 32" version="1.1" xml:space="preserve" xmlns="http://www.w3.org/2000/svg" xmlns:xlink="http://www.w3.org/1999/xlink">
<g id="Layer_2"/>
<g id="Layer_3"/>
<g id="Layer_4"/>
<g id="Layer_5"/>
<g id="Layer_6"/>
<g id="Layer_7"/>
<g id="Layer_8"/>
<g id="Layer_9"/>
<g id="Layer_10"/>
<g id="Layer_11"/>
<g id="Layer_12"/>
<g id="Layer_13"/>
<g id="Layer_14"/>
<g id="Layer_15"/>
<g id="Layer_16"/>
<g id="Layer_17"/>
<g id="Layer_18"/>
<g id="Layer_19"/>
<g id="Layer_20"/>
<g id="Layer_21">
<g>
<path d="M21.709,14c-0.1699,0-0.3423-0.043-0.5-0.1343c-0.478-0.2769-0.6411-0.8882-0.3647-1.3667l0.7881-1.3623    l-1.2515-0.7202c-0.3428-0.1973-0.5371-0.5781-0.4956-0.9717l0.0308-0.2339C19.9268,9.1411,19.9399,9.0732,19.9399,9    s-0.0132-0.1411-0.0239-0.2109l-0.0308-0.2339c-0.0415-0.3936,0.1528-0.7744,0.4956-0.9717l1.252-0.7202l-1-1.73l-1.2451,0.7144    C19.0454,6.0425,18.6221,6.02,18.3037,5.79c-0.2773-0.2012-0.5283-0.3496-0.7676-0.4551c-0.3623-0.1602-0.5962-0.519-0.5962-0.915    V3h-2v1.4199c0,0.396-0.2339,0.7549-0.5962,0.915c-0.2344,0.103-0.4854,0.2505-0.79,0.4644    C13.2349,6.022,12.8174,6.04,12.481,5.8467l-1.2349-0.7119l-1,1.73l1.2446,0.7197c0.3418,0.1978,0.5352,0.5781,0.4941,0.9707    L11.9644,8.729C11.9531,8.8193,11.9399,8.9058,11.9399,9s0.0132,0.1807,0.0244,0.271l0.0205,0.1738    c0.041,0.3926-0.1523,0.7729-0.4941,0.9707l-1.2446,0.7197l0.7896,1.3638c0.2764,0.4785,0.1133,1.0898-0.3647,1.3667    c-0.4785,0.2773-1.0898,0.1133-1.3667-0.3647l-1.29-2.23c-0.1328-0.23-0.1689-0.5029-0.1006-0.7593    c0.0688-0.2559,0.2363-0.4746,0.4658-0.6074L9.9399,9.002c0-0.001,0-0.0029,0-0.0039L8.3794,8.0957    c-0.478-0.2764-0.6416-0.8882-0.3652-1.3662l2-3.46c0.2754-0.478,0.8862-0.6421,1.3647-0.3662l1.561,0.8994V2    c0-0.5522,0.4478-1,1-1h4c0.5522,0,1,0.4478,1,1v1.7988l1.5625-0.8965c0.4785-0.2729,1.0884-0.1094,1.3633,0.3672l2,3.46    c0.1328,0.23,0.1689,0.5034,0.1001,0.7598S23.729,7.9644,23.499,8.0967l-1.5591,0.897c0,0.0024,0,0.0044,0,0.0063    s0,0.0039,0,0.0063l1.5591,0.897c0.23,0.1323,0.3979,0.3511,0.4668,0.6074c0.0688,0.2568,0.0327,0.5303-0.1001,0.7603l-1.29,2.23    C22.3901,13.8213,22.0542,14,21.709,14z" fill="#F5D803"/>
</g>
<g>
<path d="M15.938,12c-1.6543,0-3-1.3457-3-3s1.3457-3,3-3s3,1.3457,3,3S17.5923,12,15.938,12z M15.938,8    c-0.5513,0-1,0.4487-1,1s0.4487,1,1,1s1-0.4487,1-1S16.4893,8,15.938,8z" fill="#00ACBA"/>
</g>
<g>
<path d="M13,31c-0.207,0-0.4121-0.0645-0.5845-0.189C12.1543,30.623,12,30.3213,12,30v-8.3818l-5.4473-2.7236    C6.2139,18.7251,6,18.3789,6,18v-5c0-0.5522,0.4478-1,1-1h18c0.5522,0,1,0.4478,1,1v5c0,0.3789-0.2139,0.7251-0.5527,0.8945    L20,21.6182V28c0,0.4307-0.2754,0.8125-0.6836,0.9487l-6,2C13.2129,30.9829,13.1064,31,13,31z M8,17.3818l5.4473,2.7236    C13.7861,20.2749,14,20.6211,14,21v7.6128l4-1.3335V21c0-0.3789,0.2139-0.7251,0.5527-0.8945L24,17.3818V14H8V17.3818z" fill="#0181B0"/>
</g>
</g>
<g id="Layer_22"/>
<g id="Layer_23"/>
<g id="Layer_24"/>
<g id="Layer_25"/>
<g id="Layer_26"/>
</svg>