<?xml version="1.0" ?>
<!-- Uploaded to: SVG Repo, www.svgrepo.com, Generator: SVG Repo Mixer Tools -->
<svg width="800px" height="800px" viewBox="0 0 64 64" id="TwoTone" xmlns="http://www.w3.org/2000/svg">
<title/>
<desc/>
<g data-name="Stroke copy 3" id="Stroke_copy_3">
<path d="M43,53A24,24,0,0,1,19,29V7H12V57a4,4,0,0,0,4,4H52V53Z" style="fill:#cff09e"/>
<path d="M16,3H52a0,0,0,0,1,0,0v8a0,0,0,0,1,0,0H16a4,4,0,0,1-4-4V7a4,4,0,0,1,4-4Z" style="fill:#a8dba8"/>
<rect height="4" style="fill:#79bd9a" width="22" x="21" y="28"/>
<rect height="10" style="fill:#cff09e" width="4" x="30" y="18"/>
<path d="M37.3,49a10,10,0,0,1-9.92-8.78l-1-8.22H23l2.45,20h13.1l.36-3Z" style="fill:#cff09e"/>
<path d="M32,43a17.46,17.46,0,0,0-7.79-1.18L25.45,52h13.1l1-7.8A17.36,17.36,0,0,1,32,43Z" style="fill:#a8dba8"/>
</g>
<g data-name="Stroke Close copy 3" id="Stroke_Close_copy_3">
<path d="M45.29,23.29,41.59,27H35V18a1,1,0,0,0-1-1H30a1,1,0,0,0-1,1v9H21a1,1,0,0,0-1,1v4a1,1,0,0,0,1,1h1.12l1.47,12-6.3,6.29a1,1,0,0,0,0,1.42,1,1,0,0,0,1.42,0l5.19-5.19.56,4.6a1,1,0,0,0,1,.88h13.1a1,1,0,0,0,1-.88L41.88,33H43a1,1,0,0,0,1-1V28a.91.91,0,0,0-.13-.46l2.84-2.83a1,1,0,0,0-1.42-1.42ZM31,19h2v8H31ZM22,29H39.59l-2,2H22Zm13.59,4-7.9,7.9a18.93,18.93,0,0,0-2.61-.12L24.13,33ZM25.33,42.8h.47l-.42.41Zm1,8.2-.65-5.28L28.38,43a15.64,15.64,0,0,1,3.25.9,18.75,18.75,0,0,0,6.74,1.3L37.66,51Zm12.28-7.79a16.19,16.19,0,0,1-6.25-1.14,16.49,16.49,0,0,0-2.29-.73L38.41,33h1.46ZM42,31H40.41L42,29.41Z" style="fill:#3b8686"/>
<path d="M52,2H16a5,5,0,0,0-5,5V57a5,5,0,0,0,5,5H52a1,1,0,0,0,1-1V3A1,1,0,0,0,52,2ZM16,4H51V6H32a1,1,0,0,0,0,2H51v2H16a3,3,0,0,1,0-6Zm0,56a3,3,0,0,1-3-3V11a4.92,4.92,0,0,0,3,1H51V60Z" style="fill:#3b8686"/>
<path d="M18,8H28a1,1,0,0,0,0-2H18a1,1,0,0,0,0,2Z" style="fill:#3b8686"/>
</g>
</svg>