<?xml version="1.0" ?>
<!-- Uploaded to: SVG Repo, www.svgrepo.com, Generator: SVG Repo Mixer Tools -->
<svg width="800px" height="800px" viewBox="0 0 64 64" id="TwoTone" xmlns="http://www.w3.org/2000/svg">
<title/>
<desc/>
<g data-name="Stroke copy 3" id="Stroke_copy_3">
<rect height="4" style="fill:#79bd9a" width="6" x="6" y="57"/>
<rect height="4" style="fill:#79bd9a" width="6" x="52" y="57"/>
<path d="M47,43H59a0,0,0,0,1,0,0v8a0,0,0,0,1,0,0H43a0,0,0,0,1,0,0V47A4,4,0,0,1,47,43Z" style="fill:#a8dba8"/>
<path d="M35.34,31.11,22.62,18.38,32,13.69a3,3,0,0,1,3.47.57l4,4A3,3,0,0,1,40,21.73Z" style="fill:#a8dba8"/>
<path d="M24.56,24.16h6a0,0,0,0,1,0,0v1a3,3,0,0,1-3,3h0a3,3,0,0,1-3-3v-1A0,0,0,0,1,24.56,24.16Z" style="fill:#cff09e" transform="translate(26.57 -11.83) rotate(45)"/>
<path d="M43.39,7.51l-7.34,7.34,2.83,2.83,7.34-7.35A4.59,4.59,0,0,1,49.44,9h0A4.56,4.56,0,0,1,54,13.56V43h4V13.56A8.56,8.56,0,0,0,49.44,5h0A8.55,8.55,0,0,0,43.39,7.51Z" style="fill:#cff09e"/>
<path d="M14.71,47.9,7,50v1H23V50l-2.07-1.24A7.94,7.94,0,0,0,14.71,47.9Z" style="fill:#cff09e"/>
<path d="M25.07,48.76,23,50v1H39V50l-7.71-2.1A7.94,7.94,0,0,0,25.07,48.76Z" style="fill:#cff09e"/>
<path d="M7,51H3v6H61V54H10A3,3,0,0,1,7,51Z" style="fill:#cff09e"/>
</g>
<g data-name="Stroke Close copy 3" id="Stroke_Close_copy_3">
<path d="M3,52H61a1,1,0,0,0,0-2H60V43a1,1,0,0,0-1-1V13.56A9.57,9.57,0,0,0,49.44,4a9.45,9.45,0,0,0-6.75,2.8L36,13.44a4,4,0,0,0-4.49-.64l-9.38,4.69a1,1,0,0,0-.54.73,1,1,0,0,0,.28.87l3.53,3.54h0a4,4,0,0,0,5.66,5.65l3.54,3.54a1,1,0,0,0,.7.29h.16a1,1,0,0,0,.74-.54l4.69-9.38a4,4,0,0,0-.65-4.49L46.93,11a3.52,3.52,0,0,1,2.51-1A3.57,3.57,0,0,1,53,13.56V42H49V41a1,1,0,0,0-2,0v1a5,5,0,0,0-5,5v3H40V47a1,1,0,0,0-.74-1l-7.7-2.11a9,9,0,0,0-7,1L23,45.83l-1.56-.93a9,9,0,0,0-7-1L6.74,46A1,1,0,0,0,6,47v3H3a1,1,0,0,0,0,2ZM26.86,26.87a2,2,0,0,1,0-2.83l1.41,1.42,1.42,1.41A2,2,0,0,1,26.86,26.87Zm12.28-5.58-4.07,8.13L24.3,18.66l8.14-4.07a2,2,0,0,1,2.31.37l.59.59h0L36.76,17l2,2A2,2,0,0,1,39.14,21.29ZM49.44,8a5.53,5.53,0,0,0-3.93,1.63l-6.63,6.63-.71-.7-.71-.71L44.1,8.21A7.56,7.56,0,0,1,57,13.56V42H55V13.56A5.56,5.56,0,0,0,49.44,8ZM44,47a3,3,0,0,1,3-3H58v6H44Zm-18.41-.39A7,7,0,0,1,31,45.86l7,1.9V50H24V47.57ZM8,47.76l7-1.9a7,7,0,0,1,5.44.75l1.59,1V50H8Z" style="fill:#3b8686"/>
<path d="M61,56H3a1,1,0,0,0,0,2H5v3a1,1,0,0,0,2,0V58h4v3a1,1,0,0,0,2,0V58H51v3a1,1,0,0,0,2,0V58h4v3a1,1,0,0,0,2,0V58h2a1,1,0,0,0,0-2Z" style="fill:#3b8686"/>
</g>
</svg>