<?xml version="1.0" ?>
<!-- Uploaded to: SVG Repo, www.svgrepo.com, Generator: SVG Repo Mixer Tools -->
<svg width="800px" height="800px" viewBox="0 0 64 64" id="TwoTone" xmlns="http://www.w3.org/2000/svg">
<title/>
<desc/>
<g data-name="Stroke copy 3" id="Stroke_copy_3">
<path d="M43,53A24,24,0,0,1,19,29V7H12V57a4,4,0,0,0,4,4H52V53Z" style="fill:#cff09e"/>
<path d="M16,3H52a0,0,0,0,1,0,0v8a0,0,0,0,1,0,0H16a4,4,0,0,1-4-4V7a4,4,0,0,1,4-4Z" style="fill:#a8dba8"/>
<path d="M32,21A15,15,0,1,0,47,36,15,15,0,0,0,32,21ZM42,47H34a8,8,0,0,1-8-8V36H42Z" style="fill:#79bd9a"/>
<path d="M26,39V36H22V47.16a14.94,14.94,0,0,0,20,0V47H34A8,8,0,0,1,26,39Z" style="fill:#a8dba8"/>
<circle cx="32" cy="44" r="2" style="fill:#79bd9a"/>
</g>
<g data-name="Stroke Close copy 3" id="Stroke_Close_copy_3">
<path d="M52,2H16a5,5,0,0,0-5,5V57a5,5,0,0,0,5,5H52a1,1,0,0,0,1-1V3A1,1,0,0,0,52,2ZM16,4H51V6H32a1,1,0,0,0,0,2H51v2H16a3,3,0,0,1,0-6Zm0,56a3,3,0,0,1-3-3V11a4.92,4.92,0,0,0,3,1H51V60Z" style="fill:#3b8686"/>
<path d="M18,8H28a1,1,0,0,0,0-2H18a1,1,0,0,0,0,2Z" style="fill:#3b8686"/>
<path d="M32,20A16,16,0,1,0,48,36,16,16,0,0,0,32,20Zm5,15H27V31.72A4.73,4.73,0,0,1,31.72,27h.56A4.73,4.73,0,0,1,37,31.72Zm4,2v9.71A14,14,0,0,1,33,50V46.82a3,3,0,1,0-2,0V50a14,14,0,0,1-8-3.24V37Zm-9,8a1,1,0,1,1,1-1A1,1,0,0,1,32,45Zm11-.37V36a1,1,0,0,0-1-1H39V31.72A6.72,6.72,0,0,0,32.28,25h-.56A6.72,6.72,0,0,0,25,31.72V35H22a1,1,0,0,0-1,1v8.63a14,14,0,1,1,22,0Z" style="fill:#3b8686"/>
</g>
</svg>