<?xml version="1.0" ?>
<!-- Uploaded to: SVG Repo, www.svgrepo.com, Generator: SVG Repo Mixer Tools -->
<svg width="800px" height="800px" viewBox="0 0 64 64" id="TwoTone" xmlns="http://www.w3.org/2000/svg">
<title/>
<desc/>
<g data-name="Stroke copy 3" id="Stroke_copy_3">
<path d="M43,53A24,24,0,0,1,19,29V7H12V57a4,4,0,0,0,4,4H52V53Z" style="fill:#cff09e"/>
<path d="M16,3H52a0,0,0,0,1,0,0v8a0,0,0,0,1,0,0H16a4,4,0,0,1-4-4V7a4,4,0,0,1,4-4Z" style="fill:#a8dba8"/>
<circle cx="32" cy="52" r="3" style="fill:#a8dba8"/>
<path d="M26,21H42a0,0,0,0,1,0,0v8a0,0,0,0,1,0,0H26a4,4,0,0,1-4-4v0A4,4,0,0,1,26,21Z" style="fill:#79bd9a"/>
<path d="M26,29H42a0,0,0,0,1,0,0v8a0,0,0,0,1,0,0H26a4,4,0,0,1-4-4v0A4,4,0,0,1,26,29Z" style="fill:#79bd9a"/>
<path d="M26,37H42a0,0,0,0,1,0,0v8a0,0,0,0,1,0,0H26a4,4,0,0,1-4-4v0A4,4,0,0,1,26,37Z" style="fill:#79bd9a"/>
</g>
<g data-name="Stroke Close copy 3" id="Stroke_Close_copy_3">
<path d="M45,51H35.86A4,4,0,0,0,33,48.14V46h9a1,1,0,0,0,1-1V21a1,1,0,0,0-1-1H26a5,5,0,0,0-3,9,5,5,0,0,0,0,8,5,5,0,0,0,3,9h5v2.14A4,4,0,0,0,28.14,51H19a1,1,0,0,0,0,2h9.14a4,4,0,0,0,7.72,0H45a1,1,0,0,0,0-2ZM23,25a3,3,0,0,1,3-3H41v6H26A3,3,0,0,1,23,25Zm0,8a3,3,0,0,1,3-3H41v6H26A3,3,0,0,1,23,33Zm0,8a3,3,0,0,1,3-3H41v6H26A3,3,0,0,1,23,41Zm9,13a2,2,0,1,1,2-2A2,2,0,0,1,32,54Z" style="fill:#3b8686"/>
<circle cx="27" cy="25" r="1" style="fill:#3b8686"/>
<path d="M37,24H35a1,1,0,0,0,0,2h2a1,1,0,0,0,0-2Z" style="fill:#3b8686"/>
<circle cx="31" cy="25" r="1" style="fill:#3b8686"/>
<path d="M33,32H31a1,1,0,0,0,0,2h2a1,1,0,0,0,0-2Z" style="fill:#3b8686"/>
<circle cx="27" cy="33" r="1" style="fill:#3b8686"/>
<circle cx="37" cy="33" r="1" style="fill:#3b8686"/>
<circle cx="37" cy="41" r="1" style="fill:#3b8686"/>
<path d="M29,40H27a1,1,0,0,0,0,2h2a1,1,0,0,0,0-2Z" style="fill:#3b8686"/>
<circle cx="33" cy="41" r="1" style="fill:#3b8686"/>
<path d="M52,2H16a5,5,0,0,0-5,5V57a5,5,0,0,0,5,5H52a1,1,0,0,0,1-1V3A1,1,0,0,0,52,2ZM16,4H51V6H32a1,1,0,0,0,0,2H51v2H16a3,3,0,0,1,0-6Zm0,56a3,3,0,0,1-3-3V11a4.92,4.92,0,0,0,3,1H51V60Z" style="fill:#3b8686"/>
<path d="M18,8H28a1,1,0,0,0,0-2H18a1,1,0,0,0,0,2Z" style="fill:#3b8686"/>
</g>
</svg>