<?xml version="1.0" ?>
<!-- Uploaded to: SVG Repo, www.svgrepo.com, Generator: SVG Repo Mixer Tools -->
<svg width="800px" height="800px" viewBox="0 0 64 64" id="TwoTone" xmlns="http://www.w3.org/2000/svg">
<title/>
<desc/>
<g data-name="Stroke copy 3" id="Stroke_copy_3">
<path d="M8,24V12H7a4,4,0,0,0-4,4V46a4,4,0,0,0,4,4H57a4,4,0,0,0,4-4V40H24A16,16,0,0,1,8,24Z" style="fill:#cff09e"/>
<polygon points="49 12 49 23 32 27 15 23 15 12 8 12 8 30 50 28 50 12 49 12" style="fill:#cff09e"/>
<polygon points="39 61 25 61 27 49 37 49 39 61" style="fill:#a8dba8"/>
<path d="M17,57H47a2,2,0,0,1,2,2v2a0,0,0,0,1,0,0H15a0,0,0,0,1,0,0V59A2,2,0,0,1,17,57Z" style="fill:#a8dba8"/>
<path d="M3,44H61a0,0,0,0,1,0,0v2a4,4,0,0,1-4,4H7a4,4,0,0,1-4-4V44A0,0,0,0,1,3,44Z" style="fill:#a8dba8"/>
<path d="M25.71,21.81A10,10,0,0,1,18,12.08V3.71L15,3V23l17,4V23.29Z" style="fill:#cff09e"/>
<path d="M47.29,21.11A10,10,0,0,1,35,11.37V6.29L32,7V27l17-4V20.71Z" style="fill:#cff09e"/>
<polygon points="15 7 11 7 11 27 32 27 15 23 15 7" style="fill:#79bd9a"/>
<polygon points="49 7 49 23 32 27 53 27 53 7 49 7" style="fill:#79bd9a"/>
<path d="M33,31a1,1,0,0,0-1,1v3.76l-2.11-4.21A1,1,0,0,0,28,32v8a1,1,0,0,0,2,0V36.24l2.11,4.21A1,1,0,0,0,33,41a.91.91,0,0,0,.23,0A1,1,0,0,0,34,40V32A1,1,0,0,0,33,31Z" style="fill:#4891d3"/>
<path d="M41,33a1,1,0,0,0,0-2H37a1,1,0,0,0-1,1v8a1,1,0,0,0,1,1h4a1,1,0,0,0,0-2H38V37h3a1,1,0,0,0,0-2H38V33Z" style="fill:#4891d3"/>
<path d="M51,31a1,1,0,0,0-1,1v2.49l-1.06-2.84a1,1,0,0,0-1.88,0L46,34.49V32a1,1,0,0,0-2,0v8a1,1,0,0,0,1.94.35L48,34.85l2.06,5.5A1,1,0,0,0,51,41l.18,0A1,1,0,0,0,52,40V32A1,1,0,0,0,51,31Z" style="fill:#4891d3"/>
<path d="M15,31H13a1,1,0,0,0-1,1v8a1,1,0,0,0,2,0V37h1a1,1,0,0,1,1,1v2a1,1,0,0,0,2,0V38a3,3,0,0,0-.78-2A3,3,0,0,0,18,34,3,3,0,0,0,15,31Zm-1,4V33h1a1,1,0,0,1,0,2Z" style="fill:#4891d3"/>
<path d="M25,33a1,1,0,0,0,0-2H21a1,1,0,0,0-1,1v8a1,1,0,0,0,1,1h4a1,1,0,0,0,0-2H22V37h3a1,1,0,0,0,0-2H22V33Z" style="fill:#4891d3"/>
<path d="M30,36.24,31.88,40H34V32a1,1,0,0,0-2,0v3.76l-2.11-4.21A1,1,0,0,0,28,32v8h2Z" style="fill:#57b7eb"/>
<path d="M41,39H38V37h3a1,1,0,0,0,0-2H38V33h3a1,1,0,0,0,0-2H37a1,1,0,0,0-1,1v8h6A1,1,0,0,0,41,39Z" style="fill:#57b7eb"/>
<path d="M48,34.85,49.93,40H52V32a1,1,0,0,0-2,0v2.49l-1.06-2.84a1,1,0,0,0-1.88,0L46,34.49V32a1,1,0,0,0-2,0v8h2.07Z" style="fill:#57b7eb"/>
<path d="M14.7,37H15a1,1,0,0,1,1,.82,16.81,16.81,0,0,0,2,1V38a3,3,0,0,0-.78-2A3,3,0,0,0,18,34a3,3,0,0,0-3-3H13a1,1,0,0,0-1,1v2.56A16.06,16.06,0,0,0,14.7,37ZM14,33h1a1,1,0,0,1,0,2H14Z" style="fill:#57b7eb"/>
<path d="M26,40a1,1,0,0,0-1-1H22V37h3a1,1,0,0,0,0-2H22V33h3a1,1,0,0,0,0-2H21a1,1,0,0,0-1,1v7.48A16,16,0,0,0,24,40Z" style="fill:#57b7eb"/>
</g>
<g data-name="Stroke Close copy 3" id="Stroke_Close_copy_3">
<path d="M57,11H54V7a1,1,0,0,0-1-1H50V3a1,1,0,0,0-.38-.78A1,1,0,0,0,48.77,2L32,6,15.23,2a1,1,0,0,0-.85.19A1,1,0,0,0,14,3V6H11a1,1,0,0,0-1,1v4H7a5,5,0,0,0-5,5V46a5,5,0,0,0,5,5H25.65l-.83,5H17a3,3,0,0,0-3,3v2a1,1,0,0,0,1,1H49a1,1,0,0,0,1-1V59a3,3,0,0,0-3-3H39.18l-.83-5H57a5,5,0,0,0,5-5V16A5,5,0,0,0,57,11ZM52,8V26H40.62l8.61-2A1,1,0,0,0,50,23V8ZM48,22.21,33,25.74V7.79L48,4.26Zm-32-18L31,7.79v18L16,22.21ZM12,8h2V23a1,1,0,0,0,.77,1l8.61,2H12ZM7,13h3V27a1,1,0,0,0,1,1H53a1,1,0,0,0,1-1V13h3a3,3,0,0,1,3,3V43H4V16A3,3,0,0,1,7,13ZM48,59v1H16V59a1,1,0,0,1,1-1H47A1,1,0,0,1,48,59ZM37.15,56H26.85l.83-5h8.64ZM57,49H7a3,3,0,0,1-3-3V45H60v1A3,3,0,0,1,57,49Z" style="fill:#3b8686"/>
<path d="M29,41a1,1,0,0,0,1-1V36.24l2.11,4.21A1,1,0,0,0,33,41a.91.91,0,0,0,.23,0A1,1,0,0,0,34,40V32a1,1,0,0,0-2,0v3.76l-2.11-4.21A1,1,0,0,0,28,32v8A1,1,0,0,0,29,41Z" style="fill:#3b8686"/>
<path d="M37,41h4a1,1,0,0,0,0-2H38V37h3a1,1,0,0,0,0-2H38V33h3a1,1,0,0,0,0-2H37a1,1,0,0,0-1,1v8A1,1,0,0,0,37,41Z" style="fill:#3b8686"/>
<path d="M44.82,41a1,1,0,0,0,1.12-.63L48,34.85l2.06,5.5A1,1,0,0,0,51,41l.18,0A1,1,0,0,0,52,40V32a1,1,0,0,0-2,0v2.49l-1.06-2.84a1,1,0,0,0-1.88,0L46,34.49V32a1,1,0,0,0-2,0v8A1,1,0,0,0,44.82,41Z" style="fill:#3b8686"/>
<path d="M13,41a1,1,0,0,0,1-1V37h1a1,1,0,0,1,1,1v2a1,1,0,0,0,2,0V38a3,3,0,0,0-.78-2A3,3,0,0,0,18,34a3,3,0,0,0-3-3H13a1,1,0,0,0-1,1v8A1,1,0,0,0,13,41Zm1-8h1a1,1,0,0,1,0,2H14Z" style="fill:#3b8686"/>
<path d="M21,41h4a1,1,0,0,0,0-2H22V37h3a1,1,0,0,0,0-2H22V33h3a1,1,0,0,0,0-2H21a1,1,0,0,0-1,1v8A1,1,0,0,0,21,41Z" style="fill:#3b8686"/>
<path d="M18.77,14.92l9,2.11a.91.91,0,0,0,.23,0,1,1,0,0,0,.23-2l-9-2.11a1,1,0,0,0-1.2.74A1,1,0,0,0,18.77,14.92Z" style="fill:#3b8686"/>
<path d="M18.77,9.92l9,2.11a.91.91,0,0,0,.23,0,1,1,0,0,0,.23-2L19.23,8a1,1,0,0,0-1.2.74A1,1,0,0,0,18.77,9.92Z" style="fill:#3b8686"/>
<path d="M36,17.06a.91.91,0,0,0,.23,0l9-2.11A1,1,0,0,0,46,13.71a1,1,0,0,0-1.2-.74l-9,2.11a1,1,0,0,0,.23,2Z" style="fill:#3b8686"/>
<path d="M36,12.06a.91.91,0,0,0,.23,0l9-2.11A1,1,0,0,0,46,8.71,1,1,0,0,0,44.77,8l-9,2.11a1,1,0,0,0,.23,2Z" style="fill:#3b8686"/>
<path d="M18.77,19.92l9,2.11a.91.91,0,0,0,.23,0,1,1,0,0,0,.23-2l-9-2.11a1,1,0,0,0-1.2.74A1,1,0,0,0,18.77,19.92Z" style="fill:#3b8686"/>
<path d="M36,22.06a.91.91,0,0,0,.23,0l9-2.11A1,1,0,0,0,46,18.71a1,1,0,0,0-1.2-.74l-9,2.11a1,1,0,0,0,.23,2Z" style="fill:#3b8686"/>
</g>
</svg>