<?xml version="1.0" encoding="utf-8"?><!-- Uploaded to: SVG Repo, www.svgrepo.com, Generator: SVG Repo Mixer Tools -->
<svg width="800px" height="800px" viewBox="0 0 48 48" xmlns="http://www.w3.org/2000/svg"><title>24 Technology Devices icons</title><path d="M11.5,13h25a1,1,0,0,1,1,1V27.27A12.73,12.73,0,0,1,24.77,40H23.23A12.73,12.73,0,0,1,10.5,27.27V14a1,1,0,0,1,1-1Z" fill="none" stroke="#000000" stroke-miterlimit="10" stroke-width="2"/><path d="M15,13V2a1,1,0,0,1,1-1H32a1,1,0,0,1,1,1V13" fill="none" stroke="#000000" stroke-miterlimit="10" stroke-width="2"/><line x1="24" y1="40" x2="24" y2="47" fill="none" stroke="#000000" stroke-linecap="round" stroke-miterlimit="10" stroke-width="2"/><circle cx="20" cy="7.5" r="2"/><circle cx="28" cy="7.5" r="2"/><rect width="48" height="48" fill="none"/></svg>