<?xml version="1.0" encoding="utf-8"?>
<!-- Uploaded to: SVG Repo, www.svgrepo.com, Generator: SVG Repo Mixer Tools -->
<svg width="800px" height="800px" viewBox="0 0 1024 1024" class="icon"  version="1.1" xmlns="http://www.w3.org/2000/svg"><path d="M941.011023 882.470379c0.01843 25.811125-20.891356 46.750604-46.702482 46.769034l-765.292847 0.543683c-25.811125 0.01843-46.750604-20.891356-46.769034-46.702481l-0.523205-736.455117c-0.01843-25.811125 20.891356-46.750604 46.702481-46.769034l765.292847-0.543683c25.811125-0.01843 46.750604 20.891356 46.769034 46.702481l0.523206 736.455117z" fill="#FFFFFF" /><path d="M129.035148 944.830115h-0.058361c-34.049306 0-61.764858-27.693026-61.779193-61.742333l-0.529349-736.455117c-0.014334-34.070808 27.685859-61.800694 61.7495-61.82322l765.287728-0.543683c34.093334 0 61.808885 27.700194 61.82322 61.742333l0.529348 736.456141c0.014334 34.070808-27.671525 61.800694-61.735165 61.82322l-765.287728 0.542659z m764.72971-830.468268l-765.31742 0.543684c-17.486937 0.007167-31.697442 14.232006-31.683108 31.7128l0.529349 736.456141c0.014334 17.458269 14.224839 31.660582 31.683108 31.660582v15.048042l0.029692-15.048042 765.287728-0.543683c17.472603-0.007167 31.683107-14.232006 31.668773-31.712801l-0.529349-736.456141c-0.015358-17.457245-14.225863-31.660582-31.668773-31.660582z" fill="#4E6DC4" /><path d="M940.994641 302.287808l-859.155487 0.613307-0.080887-113.719871c-0.043003-77.9617 46.224327-89.547987 65.89214-89.584847l716.771946-0.548802c32.359896 0.001024 76.488329 17.312877 76.491401 89.520341l0.080887 113.719872z" fill="#DCE5F7" /><path d="M81.834035 317.950182c-3.982914 0-7.818388-1.579855-10.639193-4.401683a15.035756 15.035756 0 0 1-4.40885-10.639193l-0.07372-113.719871C66.668245 112.083703 110.269378 84.62617 147.62481 84.545283l716.779113-0.543683c44.262563 0 91.55173 27.465724 91.55173 104.564289l0.088054 113.704513c0 3.997248-1.572688 7.825556-4.393492 10.646359s-6.657302 4.416017-10.639192 4.416018l-859.162654 0.617403h-0.014334zM864.418257 114.096661l-716.74942 0.543683c-11.93236 0.029693-50.904507 5.480858-50.86048 74.534756l0.058362 98.671829 829.065545-0.602044-0.07372-98.664662c0.001024-64.805798-38.50116-74.483562-61.440287-74.483562z" fill="#4E6DC4" /><path d="M199.114979 198.698258m-28.211112 0a28.211112 28.211112 0 1 0 56.422224 0 28.211112 28.211112 0 1 0-56.422224 0Z" fill="#4E6DC4" /><path d="M287.028845 198.635801m-28.211113 0a28.211112 28.211112 0 1 0 56.422225 0 28.211112 28.211112 0 1 0-56.422225 0Z" fill="#4E6DC4" /><path d="M374.943734 198.573344m-28.211112 0a28.211112 28.211112 0 1 0 56.422225 0 28.211112 28.211112 0 1 0-56.422225 0Z" fill="#4E6DC4" /><path d="M511.166557 589.597197m-188.266914 0a188.266914 188.266914 0 1 0 376.533828 0 188.266914 188.266914 0 1 0-376.533828 0Z" fill="#FFFFFF" /><path d="M511.319116 792.910106h-0.146415c-112.036604 0-203.250452-91.140128-203.324172-203.170589-0.044027-54.306878 21.072584-105.380325 59.457021-143.808789 38.369079-38.428464 89.421025-59.611627 143.719711-59.648488 112.169709 0 203.383557 91.140128 203.456253 203.169565 0.044027 54.306878-21.072584 105.373158-59.442686 143.800599-38.383413 38.437679-89.420001 59.620842-143.719712 59.657702z m-0.146415-376.530756c-46.393268 0.029693-89.876654 18.082839-122.573408 50.823619s-50.684371 76.25386-50.654679 122.522214c0.07372 95.438399 77.78252 173.088838 173.228087 173.088838v15.048042l0.117746-15.048042c46.275521-0.029693 89.758907-18.082839 122.441327-50.82362 32.696754-32.740781 50.684371-76.25386 50.654679-122.522213-0.07372-95.438399-77.768186-173.088838-173.213752-173.088838z" fill="#4E6DC4" /><path d="M513.683267 588.85488m-90.990641 0a90.990641 90.990641 0 1 0 181.981283 0 90.990641 90.990641 0 1 0-181.981283 0Z" fill="#4E6DC4" /></svg>