<?xml version="1.0" encoding="utf-8"?>
<!-- Uploaded to: SVG Repo, www.svgrepo.com, Generator: SVG Repo Mixer Tools -->
<svg width="800px" height="800px" viewBox="0 0 1024 1024" class="icon"  version="1.1" xmlns="http://www.w3.org/2000/svg"><path d="M512.790439 512.327643m-434.276865 0a434.276865 434.276865 0 1 0 868.55373 0 434.276865 434.276865 0 1 0-868.55373 0Z" fill="#FFFFFF" /><path d="M512.788392 960.35836c-247.044075 0-448.023549-200.986641-448.02355-448.030717S265.744317 64.297951 512.788392 64.297951s448.03686 200.986641 448.03686 448.030716-200.992785 448.029693-448.03686 448.029693z m0-868.555778c-231.868047 0-420.518918 188.643704-420.518918 420.526085S280.920345 932.854752 512.788392 932.854752c231.881357 0 420.532228-188.643704 420.532228-420.526085S744.669749 91.802582 512.788392 91.802582z" fill="#4E6DC4" /><path d="M834.741965 512.327643c0 22.785544-18.470891 41.256435-41.256435 41.256436h-84.80535c-22.785544 0-41.256435-18.470891-41.256435-41.256436 0-22.785544 18.470891-41.256435 41.256435-41.256435h84.80535c22.78452-0.001024 41.256435 18.470891 41.256435 41.256435z" fill="#FFFFFF" /><path d="M793.487577 567.336906h-84.810469c-30.338746 0-55.009263-24.677684-55.009263-55.009263s24.670517-55.009263 55.009263-55.009263h84.810469c30.338746 0 55.009263 24.677684 55.009263 55.009263s-24.670517 55.009263-55.009263 55.009263z m-84.810469-82.51287c-15.162718 0-27.504631 12.33577-27.504631 27.504631s12.341914 27.504631 27.504631 27.504632h84.810469c15.162718 0 27.504631-12.33577 27.504632-27.504632s-12.341914-27.504631-27.504632-27.504631h-84.810469z" fill="#4E6DC4" /><path d="M512.790439 512.327643m-206.395827 0a206.395828 206.395828 0 1 0 412.791655 0 206.395828 206.395828 0 1 0-412.791655 0Z" fill="#FFFFFF" /><path d="M512.949142 732.478346h-0.16075c-121.299694 0-220.063673-98.690259-220.143536-219.996096-0.080887-121.386725 98.603228-220.21828 219.982786-220.30531 121.460444 0 220.224423 98.690259 220.31862 219.989953 0.079863 121.386725-98.603228 220.21828-219.99712 220.311453z m-0.16075-412.796774c-106.365303 0.07372-192.719791 86.556194-192.638905 192.787367 0.080887 106.144144 86.488617 192.504775 192.638905 192.504776v13.751804l0.134129-13.751804c106.231174-0.080887 192.598973-86.563361 192.518086-192.787368-0.094197-106.14312-86.515238-192.504775-192.652215-192.504775z" fill="#4E6DC4" /><path d="M512.790439 512.327643m-155.961284 0a155.961284 155.961284 0 1 0 311.922569 0 155.961284 155.961284 0 1 0-311.922569 0Z" fill="#BED3F4" /><path d="M512.90921 682.042779h-0.120818c-93.512471 0-169.647559-76.080823-169.714112-169.593293-0.053242-93.587214 76.026557-169.768378 169.593293-169.834931 93.647623 0 169.781688 76.080823 169.834931 169.593294 0.039932 45.332523-17.593422 87.966084-49.623626 120.043387s-74.643288 49.757755-119.969668 49.791543z m-0.120818-311.924616c-78.511527 0.053242-142.263746 63.893516-142.209481 142.310845 0.067576 78.35692 63.859728 142.10914 142.209481 142.10914v13.751804l0.094197-13.751804c37.993313-0.026621 73.690051-14.846337 100.536324-41.726399 26.846273-26.872894 41.60558-62.597277 41.578959-100.583423-0.053242-78.365111-63.846417-142.110164-142.20948-142.110163z" fill="#4E6DC4" /></svg>