<?xml version="1.0" ?>
<!DOCTYPE svg  PUBLIC '-//W3C//DTD SVG 1.1//EN'  'http://www.w3.org/Graphics/SVG/1.1/DTD/svg11.dtd'>
<!-- Uploaded to: SVG Repo, www.svgrepo.com, Generator: SVG Repo Mixer Tools -->
<svg width="800px" height="800px" viewBox="0 0 32 32" enable-background="new 0 0 32 32" version="1.1" xml:space="preserve" xmlns="http://www.w3.org/2000/svg" xmlns:xlink="http://www.w3.org/1999/xlink">
<g id="Layer_2"/>
<g id="Layer_3"/>
<g id="Layer_4"/>
<g id="Layer_5"/>
<g id="Layer_6">
<g>
<path d="M25,31H7c-1.103,0-2-0.8975-2-2V3c0-1.1025,0.897-2,2-2h18c1.103,0,2,0.8975,2,2v26    C27,30.1025,26.103,31,25,31z M7,3v26h18.0015L25,3H7z" fill="#0181B0"/>
</g>
<g>
<path d="M16,21c-0.4736,0-0.9399-0.0479-1.3862-0.1416c-0.5405-0.1133-0.8862-0.6445-0.7725-1.1846    c0.1138-0.541,0.6455-0.8857,1.1846-0.7725C15.3369,18.9668,15.6646,19,16,19c2.7568,0,5-2.2432,5-5s-2.2432-5-5-5s-5,2.2432-5,5    c0,1.4121,0.605,2.7666,1.6597,3.7168c0.4102,0.3701,0.4434,1.002,0.0732,1.4131c-0.3687,0.4092-1.0005,0.4424-1.4121,0.0732    C9.8457,17.874,9,15.9775,9,14c0-3.8594,3.1401-7,7-7s7,3.1406,7,7S19.8599,21,16,21z" fill="#00ACBA"/>
</g>
<g>
<circle cx="22.5" cy="26.5" fill="#F5D803" r="1.5"/>
</g>
<g>
<circle cx="9.5" cy="26.5" fill="#F5D803" r="1.5"/>
</g>
<g>
<circle cx="22.5" cy="5.5" fill="#F5D803" r="1.5"/>
</g>
<g>
<circle cx="9.5" cy="5.5" fill="#F5D803" r="1.5"/>
</g>
<g>
<path d="M13.6294,24.4287c-0.1436,0-0.2871-0.0313-0.4204-0.0928l-3.6294-1.6816    c-0.2583-0.1191-0.4531-0.3438-0.5361-0.6152c-0.083-0.2725-0.0464-0.5664,0.1011-0.8096l4.6909-7.7471    c0.2642-0.4365,0.813-0.6025,1.2759-0.3896l1.8145,0.8408c0.4624,0.2139,0.6895,0.7412,0.5278,1.2246l-2.876,8.5879    c-0.0903,0.2695-0.2915,0.4883-0.5527,0.6006C13.8989,24.4014,13.7642,24.4287,13.6294,24.4287z M11.4341,21.3096l1.6021,0.7422    l2.2368-6.6797l-0.1904-0.0889L11.4341,21.3096z" fill="#F5D803"/>
</g>
</g>
<g id="Layer_7"/>
<g id="Layer_8"/>
<g id="Layer_9"/>
<g id="Layer_10"/>
<g id="Layer_11"/>
<g id="Layer_12"/>
<g id="Layer_13"/>
<g id="Layer_14"/>
<g id="Layer_15"/>
<g id="Layer_16"/>
<g id="Layer_17"/>
<g id="Layer_18"/>
<g id="Layer_19"/>
<g id="Layer_20"/>
<g id="Layer_21"/>
<g id="Layer_22"/>
<g id="Layer_23"/>
<g id="Layer_24"/>
<g id="Layer_25"/>
<g id="Layer_26"/>
</svg>