<?xml version="1.0" encoding="utf-8"?>
<!-- Uploaded to: SVG Repo, www.svgrepo.com, Generator: SVG Repo Mixer Tools -->
<svg width="800px" height="800px" viewBox="0 0 1024 1024" class="icon"  version="1.1" xmlns="http://www.w3.org/2000/svg"><path d="M78.812549 190.279873h-0.922521V422.333243h870.318909v-56.620859c0.039932-0.934807 0.278497-1.813301 0.278496-2.757323v-163.524725c0-0.944022-0.238565-1.822516-0.278496-2.757323v-6.39314h-0.644024c-4.478474-31.242837-31.085158-55.33793-63.565873-55.33793H142.379446c-32.480714-0.001024-59.088422 24.095093-63.566897 55.33793z" fill="#DCE5F7" /><path d="M948.20996 435.910986H77.8931c-7.494841 0-13.570576-6.069592-13.570576-13.570576V190.286016c0-2.584287 0.715696-4.98325 1.967907-7.037164 7.567536-35.623018 39.400131-61.876462 76.090038-61.876462h741.619595c37.094341 0 69.232054 26.837058 76.33577 63.055978a12.676724 12.676724 0 0 1 1.444703 5.857648v6.388021c0.158702 0.46382 0.278497 1.590094 0.278496 2.756299v163.524725c0 1.166205-0.119795 2.30579-0.278496 3.432064v55.953285c0 7.500984-6.076759 13.570576-13.570577 13.570576z m-856.746284-27.141152h843.174685v-43.05745c0-0.635833 0.17918-2.531045 0.271329-3.167901l0.006143-163.114147c-0.066553-0.45051-0.244709-1.73651-0.265186-2.187019l-0.006143-2.876094a12.119731 12.119731 0 0 1-0.509895-2.160398c-3.571312-24.901915-25.12717-43.694306-50.134545-43.694306H142.380469c-25.007375 0-46.563233 18.792391-50.134545 43.694306a13.035084 13.035084 0 0 1-0.782248 2.994864v213.568145z" fill="#4E6DC4" /><path d="M947.564913 833.386341h0.92252V411.969475H78.168525v56.620859c-0.039932 0.934807-0.278497 1.813301-0.278497 2.757323v352.888221c0 0.944022 0.238565 1.822516 0.278497 2.757323v6.39314h0.644024c4.478474 31.242837 31.085158 55.33793 63.565873 55.33793h741.619594c32.480714 0.001024 59.088422-24.095093 63.566897-55.33793z" fill="#FFFFFF" /><path d="M884.001088 902.298943h-741.620619c-37.094341 0-69.232054-26.837058-76.33577-63.055978a12.676724 12.676724 0 0 1-1.444702-5.857648v-6.388021c-0.158702-0.46382-0.278497-1.590094-0.278497-2.756299V471.348681c0-1.166205 0.118771-2.30579 0.278497-3.432064V411.963332c0-7.500984 6.076759-13.570576 13.570576-13.570576h870.31686c7.494841 0 13.570576 6.069592 13.570577 13.570576v421.421985a13.443614 13.443614 0 0 1-1.967908 7.037164c-7.566513 35.623018-39.399107 61.876462-76.089014 61.876462z m-792.265058-72.995857c0.232422 0.689075 0.404435 1.418081 0.509894 2.160398 3.571312 24.901915 25.12717 43.694306 50.134545 43.694306h741.619595c25.007375 0 46.563233-18.792391 50.134545-43.694306 0.145392-1.047435 0.410578-2.053914 0.782248-2.994864V425.533908H91.742173v43.05745c0 0.635833-0.17918 2.531045-0.27133 3.167901l-0.006143 352.481738c0.066553 0.45051 0.244709 1.73651 0.265186 2.187019l0.006144 2.87507z" fill="#4E6DC4" /><path d="M188.860768 210.029597h648.65695v117.937255H188.860768z" fill="#FFFFFF" /><path d="M837.516694 341.538452H188.857696c-7.494841 0-13.570576-6.069592-13.570576-13.570576V210.032668c0-7.500984 6.076759-13.570576 13.570576-13.570576h648.658998c7.494841 0 13.570576 6.069592 13.570576 13.570576v117.935208c0 7.500984-6.075736 13.570576-13.570576 13.570576zM202.428272 314.3973h621.517846v-90.794056H202.428272v90.794056z" fill="#4E6DC4" /><path d="M297.051658 520.65695v-20.298526c0-0.117747-0.029693-0.226279-0.034812-0.341978v-0.793511h-0.079863c-0.55597-3.878478-3.859024-6.869247-7.891084-6.869247h-92.060601c-4.03206 0-7.335114 2.990769-7.891085 6.869247h-0.114675V528.027901h0.034812v5.741949c-0.005119 0.115699-0.034812 0.225255-0.034812 0.341977v16.871583c0 0.117747 0.029693 0.226279 0.034812 0.341978v0.793511h0.079863c0.55597 3.878478 3.859024 6.869247 7.891085 6.869246h92.060601c4.03206 0 7.335114-2.990769 7.891084-6.869246h0.114675V526.740877h-0.034812v-5.741949c0.005119-0.115699 0.034812-0.225255 0.034812-0.341978z" fill="#BED3F4" /><path d="M289.047947 572.559745H196.988369c-9.860016 0-18.460652-6.83853-20.872926-16.234725a13.346345 13.346345 0 0 1-0.669621-4.201002l-0.032764-18.010143c0-0.278497 0.013311-0.595901 0.032764-0.914329v-4.214312a15.634729 15.634729 0 0 1-0.032764-0.954261v-27.671525c0-1.034124 0.112627-2.053914 0.331739-3.061417l-0.079863-0.013311c1.517398-10.549091 10.681172-18.500584 21.323435-18.500584h92.059578c9.860016 0 18.460652 6.83853 20.872926 16.234726a13.525525 13.525525 0 0 1 0.669621 4.201001l0.032764 21.443231c0 0.278497-0.013311 0.595901-0.032764 0.914329v4.214312c0.019454 0.318428 0.032764 0.635833 0.032764 0.954261v24.239462c0 1.034124-0.112627 2.053914-0.331739 3.061417l0.079863 0.01331c-1.517398 10.547043-10.681172 18.49956-21.323435 18.49956z m-86.493737-27.142176h80.927896v-17.718335a15.634729 15.634729 0 0 1-0.032764-0.954261v-5.751164c0-0.278497 0.013311-0.595901 0.032764-0.91433V505.925288h-80.927896v21.151423c0.019454 0.318428 0.032764 0.635833 0.032764 0.954262v5.738877c0 0.278497-0.013311 0.595901-0.032764 0.901019v10.7467z" fill="#4E6DC4" /><path d="M297.051658 645.333419V625.033868c0-0.117747-0.029693-0.226279-0.034812-0.341977v-0.793512h-0.079863c-0.55597-3.878478-3.859024-6.869247-7.891084-6.869246h-92.060601c-4.03206 0-7.335114 2.990769-7.891085 6.869246h-0.114675V652.703345h0.034812v5.741949c-0.005119 0.115699-0.034812 0.225255-0.034812 0.341978v16.871582c0 0.117747 0.029693 0.226279 0.034812 0.341978v0.793511h0.079863c0.55597 3.878478 3.859024 6.869247 7.891085 6.869247h92.060601c4.03206 0 7.335114-2.990769 7.891084-6.869247h0.114675v-25.378022h-0.034812v-5.741949c0.005119-0.114675 0.034812-0.224231 0.034812-0.340953z" fill="#DCE5F7" /><path d="M289.047947 697.240309H196.988369c-9.866159 0-18.46782-6.851841-20.872926-16.261347a13.26341 13.26341 0 0 1-0.669621-4.187691l-0.032764-17.996832c0-0.278497 0.013311-0.595901 0.032764-0.91433v-4.227622a15.634729 15.634729 0 0 1-0.032764-0.954261v-27.658214c0-1.034124 0.112627-2.053914 0.331739-3.048107l-0.079863-0.013311c1.511255-10.562401 10.681172-18.513894 21.323435-18.513894h92.059578c9.866159 0 18.46782 6.83853 20.872926 16.248036 0.437199 1.311597 0.669621 2.729678 0.669621 4.187691l0.032764 21.42992c0 0.278497-0.013311 0.595901-0.032764 0.91433v4.214312c0.019454 0.318428 0.032764 0.635833 0.032764 0.954261v24.252771c0 1.020814-0.112627 2.040603-0.331739 3.034797l0.079863 0.01331c-1.510231 10.561377-10.681172 18.526181-21.323435 18.526181z m-86.493737-27.141152h80.927896v-17.731646a15.634729 15.634729 0 0 1-0.032764-0.954261v-5.738878c0-0.278497 0.013311-0.595901 0.032764-0.914329v-14.154191h-80.927896v21.138113c0.019454 0.318428 0.032764 0.635833 0.032764 0.954261v5.751164c0 0.278497-0.013311 0.595901-0.032764 0.901019v10.748748z" fill="#4E6DC4" /><path d="M297.051658 770.009887v-20.298527c0-0.117747-0.029693-0.226279-0.034812-0.341977v-0.793511h-0.079863c-0.55597-3.878478-3.859024-6.869247-7.891084-6.869247h-92.060601c-4.03206 0-7.335114 2.990769-7.891085 6.869247h-0.114675V777.380837h0.034812v5.741949c-0.005119 0.115699-0.034812 0.225255-0.034812 0.341978v16.871582c0 0.117747 0.029693 0.226279 0.034812 0.341978v0.793511h0.079863c0.55597 3.878478 3.859024 6.869247 7.891085 6.869247h92.060601c4.03206 0 7.335114-2.990769 7.891084-6.869247h0.114675v-25.378022h-0.034812v-5.741948c0.005119-0.115699 0.034812-0.224231 0.034812-0.341978z" fill="#DCE5F7" /><path d="M289.047947 821.908586H196.988369c-9.866159 0-18.46782-6.83853-20.872926-16.248036a13.26341 13.26341 0 0 1-0.669621-4.187691l-0.032764-18.010143c0-0.278497 0.013311-0.595901 0.032764-0.914329v-4.214312a15.634729 15.634729 0 0 1-0.032764-0.954262v-27.671524c0-1.020814 0.112627-2.040603 0.331739-3.034796l-0.079863-0.013311c1.511255-10.562401 10.681172-18.527205 21.323435-18.527205h92.059578c9.866159 0 18.46782 6.83853 20.872926 16.261347 0.437199 1.311597 0.669621 2.729678 0.669621 4.187691l0.032764 21.42992c0 0.278497-0.013311 0.595901-0.032764 0.914329v4.214312c0.019454 0.318428 0.032764 0.635833 0.032764 0.954261v24.239462c0 1.034124-0.112627 2.053914-0.331739 3.048106l0.079863 0.013311c-1.510231 10.561377-10.681172 18.512871-21.323435 18.51287z m-86.493737-27.141152h80.927896v-17.718335a15.634729 15.634729 0 0 1-0.032764-0.954262v-5.738877c0-0.278497 0.013311-0.595901 0.032764-0.914329v-14.167502h-80.927896v21.151423c0.019454 0.318428 0.032764 0.635833 0.032764 0.954261v5.738878c0 0.278497-0.013311 0.595901-0.032764 0.901019v10.747724z" fill="#4E6DC4" /><path d="M478.224071 520.65695v-20.298526c0-0.117747-0.029693-0.226279-0.034812-0.341978v-0.793511h-0.079863c-0.55597-3.878478-3.859024-6.869247-7.891084-6.869247h-92.060602c-4.03206 0-7.335114 2.990769-7.891084 6.869247h-0.114675V528.027901h0.034812v5.741949c-0.005119 0.115699-0.034812 0.225255-0.034812 0.341977v16.871583c0 0.117747 0.029693 0.226279 0.034812 0.341978v0.793511h0.079863c0.55597 3.878478 3.859024 6.869247 7.891084 6.869246h92.060602c4.03206 0 7.335114-2.990769 7.891084-6.869246h0.114675V526.740877h-0.034812v-5.741949c0.005119-0.115699 0.034812-0.225255 0.034812-0.341978z" fill="#BED3F4" /><path d="M470.219335 572.559745h-92.059577c-9.860016 0-18.460652-6.83853-20.872926-16.234725a13.346345 13.346345 0 0 1-0.669621-4.201002l-0.032764-18.010143c0-0.278497 0.013311-0.595901 0.032764-0.914329v-4.214312a15.634729 15.634729 0 0 1-0.032764-0.954261v-27.671525c0-1.034124 0.112627-2.053914 0.331738-3.061417l-0.079863-0.013311c1.517398-10.549091 10.681172-18.500584 21.323436-18.500584h92.059577c9.860016 0 18.460652 6.83853 20.872927 16.234726a13.525525 13.525525 0 0 1 0.669621 4.201001l0.032764 21.443231c0 0.278497-0.013311 0.595901-0.032764 0.914329v4.214312c0.019454 0.318428 0.032764 0.635833 0.032764 0.954261v24.239462c0 1.034124-0.112627 2.053914-0.331739 3.061417l0.079863 0.01331c-1.517398 10.547043-10.682196 18.49956-21.323436 18.49956z m-86.493736-27.142176h80.927896v-17.718335a15.634729 15.634729 0 0 1-0.032765-0.954261v-5.751164c0-0.278497 0.013311-0.595901 0.032765-0.901019V505.925288h-80.927896v21.151423c0.019454 0.318428 0.032764 0.635833 0.032764 0.954262v5.738877c0 0.278497-0.013311 0.595901-0.032764 0.901019v10.7467z" fill="#4E6DC4" /><path d="M478.224071 645.333419V625.033868c0-0.117747-0.029693-0.226279-0.034812-0.341977v-0.793512h-0.079863c-0.55597-3.878478-3.859024-6.869247-7.891084-6.869246h-92.060602c-4.03206 0-7.335114 2.990769-7.891084 6.869246h-0.114675V652.703345h0.034812v5.741949c-0.005119 0.115699-0.034812 0.225255-0.034812 0.341978v16.871582c0 0.117747 0.029693 0.226279 0.034812 0.341978v0.793511h0.079863c0.55597 3.878478 3.859024 6.869247 7.891084 6.869247h92.060602c4.03206 0 7.335114-2.990769 7.891084-6.869247h0.114675v-25.378022h-0.034812v-5.741949c0.005119-0.114675 0.034812-0.224231 0.034812-0.340953z" fill="#DCE5F7" /><path d="M470.219335 697.240309h-92.059577c-9.866159 0-18.46782-6.851841-20.872926-16.261347a13.26341 13.26341 0 0 1-0.669621-4.187691l-0.032764-17.996832c0-0.278497 0.013311-0.595901 0.032764-0.91433v-4.227622a15.634729 15.634729 0 0 1-0.032764-0.954261v-27.658214c0-1.034124 0.112627-2.053914 0.331738-3.048107l-0.079863-0.013311c1.511255-10.562401 10.681172-18.513894 21.323436-18.513894h92.059577c9.866159 0 18.46782 6.83853 20.872927 16.248036 0.437199 1.311597 0.669621 2.729678 0.669621 4.187691l0.032764 21.42992c0 0.278497-0.013311 0.595901-0.032764 0.91433v4.214312c0.019454 0.318428 0.032764 0.635833 0.032764 0.954261v24.252771c0 1.020814-0.112627 2.040603-0.331739 3.034797l0.079863 0.01331c-1.511255 10.561377-10.682196 18.526181-21.323436 18.526181z m-86.493736-27.141152h80.927896v-17.731646a15.634729 15.634729 0 0 1-0.032765-0.954261v-5.738878c0-0.278497 0.013311-0.595901 0.032765-0.901019v-14.167501h-80.927896v21.138113c0.019454 0.318428 0.032764 0.635833 0.032764 0.954261v5.751164c0 0.278497-0.013311 0.595901-0.032764 0.914329v10.735438z" fill="#4E6DC4" /><path d="M478.224071 770.009887v-20.298527c0-0.117747-0.029693-0.226279-0.034812-0.341977v-0.793511h-0.079863c-0.55597-3.878478-3.859024-6.869247-7.891084-6.869247h-92.060602c-4.03206 0-7.335114 2.990769-7.891084 6.869247h-0.114675V777.380837h0.034812v5.741949c-0.005119 0.115699-0.034812 0.225255-0.034812 0.341978v16.871582c0 0.117747 0.029693 0.226279 0.034812 0.341978v0.793511h0.079863c0.55597 3.878478 3.859024 6.869247 7.891084 6.869247h92.060602c4.03206 0 7.335114-2.990769 7.891084-6.869247h0.114675v-25.378022h-0.034812v-5.741948c0.005119-0.115699 0.034812-0.224231 0.034812-0.341978z" fill="#DCE5F7" /><path d="M470.219335 821.908586h-92.059577c-9.866159 0-18.46782-6.83853-20.872926-16.248036a13.26341 13.26341 0 0 1-0.669621-4.187691l-0.032764-18.010143c0-0.278497 0.013311-0.595901 0.032764-0.914329v-4.214312a15.634729 15.634729 0 0 1-0.032764-0.954262v-27.671524c0-1.020814 0.112627-2.040603 0.331738-3.034796l-0.079863-0.013311c1.511255-10.562401 10.681172-18.527205 21.323436-18.527205h92.059577c9.866159 0 18.46782 6.83853 20.872927 16.261347 0.437199 1.311597 0.669621 2.729678 0.669621 4.187691l0.032764 21.42992c0 0.278497-0.013311 0.595901-0.032764 0.914329v4.214312c0.019454 0.318428 0.032764 0.635833 0.032764 0.954261v24.239462c0 1.034124-0.112627 2.053914-0.331739 3.048106l0.079863 0.013311c-1.511255 10.561377-10.682196 18.512871-21.323436 18.51287z m-86.493736-27.141152h80.927896v-17.718335a15.634729 15.634729 0 0 1-0.032765-0.954262v-5.738877c0-0.278497 0.013311-0.595901 0.032765-0.901019v-14.180812h-80.927896v21.151423c0.019454 0.318428 0.032764 0.635833 0.032764 0.954261v5.738878c0 0.278497-0.013311 0.595901-0.032764 0.901019v10.747724z" fill="#4E6DC4" /><path d="M655.230294 520.65695v-20.298526c0-0.117747-0.029693-0.226279-0.034812-0.341978v-0.793511H655.115619c-0.55597-3.878478-3.859024-6.869247-7.891084-6.869247H555.163934c-4.03206 0-7.335114 2.990769-7.891085 6.869247h-0.114675V528.027901h0.034812v5.741949c-0.005119 0.115699-0.034812 0.225255-0.034812 0.341977v16.871583c0 0.117747 0.029693 0.226279 0.034812 0.341978v0.793511h0.079863c0.55597 3.878478 3.859024 6.869247 7.891085 6.869246h92.060601c4.03206 0 7.335114-2.990769 7.891084-6.869246h0.114675V526.740877h-0.034812v-5.741949c0.005119-0.115699 0.034812-0.225255 0.034812-0.341978z" fill="#BED3F4" /><path d="M647.221463 572.559745h-92.059577c-9.873326 0-18.473963-6.83853-20.872926-16.261346a13.353512 13.353512 0 0 1-0.662454-4.174381l-0.039932-18.010143c0-0.305118 0.013311-0.649143 0.039932-1.007503v-4.028989a13.772282 13.772282 0 0 1-0.039932-1.047434v-27.671525c0-1.020814 0.112627-2.040603 0.331739-3.034796l-0.079863-0.013311c1.504088-10.562401 10.668885-18.527205 21.323436-18.527205h92.059577c9.860016 0 18.460652 6.83853 20.872926 16.234726a13.525525 13.525525 0 0 1 0.669621 4.201001l0.039932 21.443231c0 0.305118-0.013311 0.649143-0.039932 0.994192v4.0423c0.026621 0.345049 0.039932 0.702385 0.039932 1.047434v24.239462c0 1.034124-0.112627 2.053914-0.331739 3.061417l0.072696 0.01331c-1.517398 10.547043-10.681172 18.49956-21.323436 18.49956z m-86.493737-27.142176h80.93404v-17.626186a13.772282 13.772282 0 0 1-0.039932-1.047434v-5.751164c0-0.318428 0.013311-0.649143 0.039932-0.994193V505.925288h-80.93404v21.05825c0.026621 0.345049 0.039932 0.702385 0.039932 1.047435v5.738877c0 0.318428-0.013311 0.649143-0.039932 0.994192v10.653527z" fill="#4E6DC4" /><path d="M834.390772 520.65695v-20.298526c0-0.117747-0.029693-0.226279-0.034812-0.341978v-0.793511h-0.079863c-0.55597-3.878478-3.859024-6.869247-7.891084-6.869247h-92.060601c-4.03206 0-7.335114 2.990769-7.891085 6.869247h-0.114675V528.027901h0.034812v5.741949c-0.005119 0.115699-0.034812 0.225255-0.034812 0.341977v16.871583c0 0.117747 0.029693 0.226279 0.034812 0.341978v0.793511h0.079863c0.55597 3.878478 3.859024 6.869247 7.891085 6.869246h92.060601c4.03206 0 7.335114-2.990769 7.891084-6.869246h0.114675V526.740877h-0.034812v-5.741949c0.005119-0.115699 0.034812-0.225255 0.034812-0.341978z" fill="#BED3F4" /><path d="M826.385013 572.559745h-92.059577c-9.860016 0-18.460652-6.83853-20.872927-16.234725a13.346345 13.346345 0 0 1-0.669621-4.201002l-0.032764-18.010143c0-0.278497 0.013311-0.595901 0.032764-0.914329v-4.214312a15.634729 15.634729 0 0 1-0.032764-0.954261v-27.671525c0-1.034124 0.112627-2.053914 0.331739-3.061417l-0.079863-0.013311c1.517398-10.549091 10.681172-18.500584 21.323436-18.500584h92.059577c9.860016 0 18.460652 6.83853 20.872926 16.234726a13.525525 13.525525 0 0 1 0.669621 4.201001l0.032764 21.443231c0 0.278497-0.013311 0.595901-0.032764 0.914329v4.214312c0.019454 0.318428 0.032764 0.635833 0.032764 0.954261v24.239462c0 1.034124-0.112627 2.053914-0.331738 3.061417l0.079863 0.01331c-1.517398 10.547043-10.682196 18.49956-21.323436 18.49956z m-86.493737-27.142176h80.927896v-17.718335a15.634729 15.634729 0 0 1-0.032764-0.954261v-5.751164c0-0.278497 0.013311-0.595901 0.032764-0.901019V505.925288h-80.927896v21.151423c0.019454 0.318428 0.032764 0.635833 0.032765 0.954262v5.738877c0 0.278497-0.013311 0.595901-0.032765 0.901019v10.7467z" fill="#4E6DC4" /><path d="M837.3969 764.328347V627.367303c0-0.134129-0.029693-0.260067-0.034813-0.393172v-0.911258h-0.079863c-0.55597-4.452877-3.859024-7.888013-7.891084-7.888013h-92.060601c-4.03206 0-7.335114 3.434111-7.891084 7.888013h-0.114675V772.791783h0.034812v6.592798c-0.005119 0.133105-0.034812 0.258019-0.034812 0.393172v19.37191c0 0.134129 0.029693 0.260067 0.034812 0.393172v0.911258h0.079863c0.55597 4.452877 3.859024 7.888013 7.891084 7.888013h92.060601c4.03206 0 7.335114-3.434111 7.891084-7.888013h0.114676v-29.139776h-0.034813v-6.592798c0.005119-0.133105 0.034812-0.258019 0.034813-0.393172z" fill="#BED3F4" /><path d="M829.393188 821.908586H737.333611c-10.079127 0-18.771914-7.447742-20.992721-17.652807a13.345321 13.345321 0 0 1-0.549827-3.803734l-0.032764-20.674292c0-0.265186 0.013311-0.595901 0.032764-0.92764v-5.102021a15.634729 15.634729 0 0 1-0.032764-0.954261V627.372422c0-1.007503 0.106484-2.000672 0.311261-2.981554l-0.093173-0.01331c1.404771-11.278097 10.589022-19.773273 21.3562-19.773274h92.059577c10.079127 0 18.771914 7.447742 20.992721 17.652807 0.357336 1.206137 0.549826 2.477802 0.549826 3.803734l0.032765 138.265474c0 0.278497-0.013311 0.595901-0.032765 0.91433v5.115331c0.019454 0.318428 0.032764 0.635833 0.032765 0.954261v27.843538c0 0.994193-0.106484 1.988385-0.311261 2.968243l0.093173 0.013311c-1.404771 11.278097-10.589022 19.773273-21.3562 19.773273z m-86.514214-27.141152h80.947349v-22.502952a15.634729 15.634729 0 0 1-0.032764-0.954261v-6.586654c0-0.278497 0.013311-0.595901 0.032764-0.91433V631.745437h-80.927896v140.094133c0.019454 0.318428 0.032764 0.635833 0.032765 0.954261v6.586654c0 0.517062-0.046075 1.206137-0.106484 1.723199l0.054266 13.66375z" fill="#4E6DC4" /><path d="M655.230294 645.333419V625.033868c0-0.117747-0.029693-0.226279-0.034812-0.341977v-0.793512H655.115619c-0.55597-3.878478-3.859024-6.869247-7.891084-6.869246H555.163934c-4.03206 0-7.335114 2.990769-7.891085 6.869246h-0.114675V652.703345h0.034812v5.741949c-0.005119 0.115699-0.034812 0.225255-0.034812 0.341978v16.871582c0 0.117747 0.029693 0.226279 0.034812 0.341978v0.793511h0.079863c0.55597 3.878478 3.859024 6.869247 7.891085 6.869247h92.060601c4.03206 0 7.335114-2.990769 7.891084-6.869247h0.114675v-25.378022h-0.034812v-5.741949c0.005119-0.114675 0.034812-0.224231 0.034812-0.340953z" fill="#DCE5F7" /><path d="M647.221463 697.240309h-92.059577c-9.879469 0-18.48113-6.851841-20.872926-16.274657a13.353512 13.353512 0 0 1-0.662454-4.174381l-0.039932-17.996832c0-0.305118 0.013311-0.649143 0.039932-1.007503v-4.042299a13.772282 13.772282 0 0 1-0.039932-1.047435v-27.658214c0-1.020814 0.112627-2.040603 0.324572-3.034796l-0.072696-0.013311c1.497944-10.562401 10.661718-18.527205 21.323436-18.527205h92.059577c9.866159 0 18.46782 6.83853 20.872926 16.248036 0.437199 1.311597 0.669621 2.729678 0.669621 4.187691l0.039932 21.42992c0 0.305118-0.013311 0.649143-0.039932 1.007503v4.028989c0.026621 0.345049 0.039932 0.702385 0.039932 1.047435v24.252771c0 1.020814-0.112627 2.040603-0.331739 3.034797l0.072696 0.01331c-1.510231 10.561377-10.681172 18.526181-21.323436 18.526181z m-86.493737-27.141152h80.93404v-17.639496a13.751804 13.751804 0 0 1-0.039932-1.047435v-5.738877c0-0.318428 0.013311-0.649143 0.039932-0.994193v-14.074328h-80.93404v21.044939c0.026621 0.345049 0.039932 0.702385 0.039932 1.047435v5.751164c0 0.318428-0.013311 0.649143-0.039932 0.994192v10.656599z" fill="#4E6DC4" /><path d="M655.230294 770.009887v-20.298527c0-0.117747-0.029693-0.226279-0.034812-0.341977v-0.793511H655.115619c-0.55597-3.878478-3.859024-6.869247-7.891084-6.869247H555.163934c-4.03206 0-7.335114 2.990769-7.891085 6.869247h-0.114675V777.380837h0.034812v5.741949c-0.005119 0.115699-0.034812 0.225255-0.034812 0.341978v16.871582c0 0.117747 0.029693 0.226279 0.034812 0.341978v0.793511h0.079863c0.55597 3.878478 3.859024 6.869247 7.891085 6.869247h92.060601c4.03206 0 7.335114-2.990769 7.891084-6.869247h0.114675v-25.378022h-0.034812v-5.741948c0.005119-0.115699 0.034812-0.224231 0.034812-0.341978z" fill="#DCE5F7" /><path d="M647.221463 821.908586h-92.059577c-9.879469 0-18.48113-6.851841-20.872926-16.261346a13.353512 13.353512 0 0 1-0.662454-4.174381l-0.039932-18.010143c0-0.305118 0.013311-0.649143 0.039932-1.007503v-4.028989a13.772282 13.772282 0 0 1-0.039932-1.047434v-27.671525c0-1.020814 0.112627-2.027293 0.324572-3.021486l-0.072696-0.01331c1.497944-10.562401 10.668885-18.540515 21.323436-18.540516h92.059577c9.866159 0 18.46782 6.83853 20.872926 16.261347 0.437199 1.311597 0.669621 2.729678 0.669621 4.187691l0.039932 21.42992c0 0.305118-0.013311 0.649143-0.039932 1.007503v4.028989c0.026621 0.344025 0.039932 0.702385 0.039932 1.047434v24.239462c0 1.034124-0.112627 2.053914-0.331739 3.048106l0.072696 0.013311c-1.510231 10.561377-10.681172 18.512871-21.323436 18.51287z m-86.493737-27.141152h80.93404v-17.626186a13.772282 13.772282 0 0 1-0.039932-1.047435v-5.738877c0-0.318428 0.013311-0.649143 0.039932-0.994192v-14.087639h-80.93404v21.05825c0.026621 0.345049 0.039932 0.702385 0.039932 1.047435v5.738877c0 0.318428-0.013311 0.649143-0.039932 0.994192v10.655575z" fill="#4E6DC4" /></svg>