<?xml version="1.0" ?>
<!DOCTYPE svg  PUBLIC '-//W3C//DTD SVG 1.1//EN'  'http://www.w3.org/Graphics/SVG/1.1/DTD/svg11.dtd'>
<!-- Uploaded to: SVG Repo, www.svgrepo.com, Generator: SVG Repo Mixer Tools -->
<svg width="800px" height="800px" viewBox="0 0 32 32" enable-background="new 0 0 32 32" version="1.1" xml:space="preserve" xmlns="http://www.w3.org/2000/svg" xmlns:xlink="http://www.w3.org/1999/xlink">
<g id="Layer_2"/>
<g id="Layer_3"/>
<g id="Layer_4"/>
<g id="Layer_5"/>
<g id="Layer_6"/>
<g id="Layer_7"/>
<g id="Layer_8"/>
<g id="Layer_9"/>
<g id="Layer_10"/>
<g id="Layer_11"/>
<g id="Layer_12">
<g>
<path d="M26,29h-6c-0.5527,0-1-0.4473-1-1s0.4473-1,1-1h6c0.5527,0,1,0.4473,1,1S26.5527,29,26,29z" fill="#00ACBA"/>
</g>
<g>
<path d="M12,29H6c-0.5527,0-1-0.4473-1-1s0.4473-1,1-1h6c0.5527,0,1,0.4473,1,1S12.5527,29,12,29z" fill="#00ACBA"/>
</g>
<g>
<path d="M16,27c-0.5527,0-1-0.4473-1-1v-4c0-0.5527,0.4473-1,1-1s1,0.4473,1,1v4C17,26.5527,16.5527,27,16,27z" fill="#00ACBA"/>
</g>
<g>
<path d="M23,8h-5c-0.5527,0-1-0.4478-1-1V2c0-0.5522,0.4473-1,1-1s1,0.4478,1,1v4h4c0.5527,0,1,0.4478,1,1    S23.5527,8,23,8z" fill="#00ACBA"/>
</g>
<g>
<path d="M23,23H9c-0.5527,0-1-0.4473-1-1V2c0-0.5522,0.4473-1,1-1h9c0.2656,0,0.5195,0.1055,0.707,0.293l5,5    C23.8945,6.4805,24,6.7349,24,7v15C24,22.5527,23.5527,23,23,23z M10,21h12V7.4141L17.5859,3H10V21z" fill="#0181B0"/>
</g>
<g>
<path d="M19,15h-6c-0.5527,0-1-0.4478-1-1s0.4473-1,1-1h6c0.5527,0,1,0.4478,1,1S19.5527,15,19,15z" fill="#F5D803"/>
</g>
<g>
<path d="M19,19h-6c-0.5527,0-1-0.4473-1-1s0.4473-1,1-1h6c0.5527,0,1,0.4473,1,1S19.5527,19,19,19z" fill="#F5D803"/>
</g>
<g>
<path d="M4,31c-1.6543,0-3-1.3457-3-3s1.3457-3,3-3s3,1.3457,3,3S5.6543,31,4,31z M4,27c-0.5518,0-1,0.4482-1,1    s0.4482,1,1,1s1-0.4482,1-1S4.5518,27,4,27z" fill="#F5D803"/>
</g>
<g>
<path d="M28,31c-1.6543,0-3-1.3457-3-3s1.3457-3,3-3s3,1.3457,3,3S29.6543,31,28,31z M28,27    c-0.5518,0-1,0.4482-1,1s0.4482,1,1,1s1-0.4482,1-1S28.5518,27,28,27z" fill="#F5D803"/>
</g>
<g>
<path d="M20,31h-8c-0.5527,0-1-0.4473-1-1v-4c0-0.5527,0.4473-1,1-1h8c0.5527,0,1,0.4473,1,1v4    C21,30.5527,20.5527,31,20,31z M13,29h6v-2h-6V29z" fill="#0181B0"/>
</g>
</g>
<g id="Layer_13"/>
<g id="Layer_14"/>
<g id="Layer_15"/>
<g id="Layer_16"/>
<g id="Layer_17"/>
<g id="Layer_18"/>
<g id="Layer_19"/>
<g id="Layer_20"/>
<g id="Layer_21"/>
<g id="Layer_22"/>
<g id="Layer_23"/>
<g id="Layer_24"/>
<g id="Layer_25"/>
<g id="Layer_26"/>
</svg>