<?xml version="1.0" encoding="utf-8"?>
<!-- Uploaded to: SVG Repo, www.svgrepo.com, Generator: SVG Repo Mixer Tools -->
<svg width="800px" height="800px" viewBox="0 0 1024 1024" class="icon"  version="1.1" xmlns="http://www.w3.org/2000/svg"><path d="M885.636233 131.195546v-0.998288H223.44659v761.840306h472.325468c1.011599 0.043003 1.962788 0.301022 2.984625 0.301022H875.73219c1.021838 0 1.973027-0.258019 2.984626-0.301022h6.919417v-0.697266c33.812789-4.847073 59.890124-33.6418 59.890124-68.794855V199.990401c0-35.152031-26.078359-63.947782-59.890124-68.794855z" fill="#DCE5F7" /><path d="M875.726047 905.906091H698.762827c-1.231734 0-2.410226-0.132081-3.575408-0.291808l-471.741853-0.012286c-7.495864 0-13.561361-6.065497-13.561361-13.561362V130.19521c0-7.489721 6.065497-13.561361 13.561361-13.561361h662.186571c2.648791 0 5.112259 0.754603 7.205081 2.066201 38.115155 8.012927 66.245381 42.055066 66.245381 81.290351V822.551586c0 39.652007-28.726127 74.006431-67.477115 81.527893a12.586622 12.586622 0 0 1-5.973347 1.523541h-6.913274c-0.582591 0.170989-1.762107 0.30307-2.992816 0.303071z m-638.71912-27.427841h458.763083c1.48361 0.053242 2.410226 0.158702 3.324555 0.291808l176.207593 0.01331c1.12525-0.158702 1.986338-0.265186 2.887357-0.291807l3.19145-0.013311c0.754603-0.251876 1.522517-0.45051 2.330363-0.56928 27.507703-3.933767 48.2465-27.745245 48.246501-55.358408V199.989377c0-27.619307-20.739821-51.425664-48.246501-55.371718a13.33713 13.33713 0 0 1-3.19145-0.861088H237.006927v734.721679z" fill="#4E6DC4" /><path d="M77.260339 130.347769h152.135025v761.840306H77.260339z" fill="#BED3F4" /><path d="M229.392292 905.747388H77.261363c-7.495864 0-13.561361-6.065497-13.561361-13.561361V130.346745c0-7.489721 6.065497-13.561361 13.561361-13.561361h152.130929c7.495864 0 13.561361 6.072664 13.561361 13.561361V892.186027c0 7.495864-6.065497 13.561361-13.561361 13.561361z m-138.569568-27.123746h125.007183V143.90913H90.822724v734.714512z" fill="#4E6DC4" /><path d="M584.485962 511.267922m-246.094934 0a246.094933 246.094933 0 1 0 492.189867 0 246.094933 246.094933 0 1 0-492.189867 0Z" fill="#FFFFFF" /><path d="M584.48289 770.926264c-143.178076 0-259.656294-116.478218-259.656295-259.656294s116.478218-259.656294 259.656295-259.656295S844.139184 368.091894 844.139184 511.26997 727.660966 770.926264 584.48289 770.926264z m0-492.189866c-128.225255 0-232.533572 104.314461-232.533572 232.533572S456.256611 743.802518 584.48289 743.802518s232.533572-104.313437 232.533572-232.532548-104.308317-232.533572-232.533572-232.533572z" fill="#4E6DC4" /><path d="M584.485962 511.267922m-95.010415 0a95.010415 95.010415 0 1 0 190.020829 0 95.010415 95.010415 0 1 0-190.020829 0Z" fill="#DCE5F7" /><path d="M584.562753 619.841746h-0.079863c-59.821524 0-108.531844-48.670389-108.571776-108.492937-0.026621-59.874766 48.643768-108.611707 108.492937-108.651639 59.901387 0 108.611707 48.670389 108.651639 108.48577 0.038908 59.868623-48.631481 108.612731-108.492937 108.658806z m-0.066553-190.02083c-44.975187 0.026621-81.488985 36.592638-81.462364 81.508439 0.039932 44.87587 36.579327 81.389668 81.449054 81.389668v13.561362l0.053242-13.561362c44.922969-0.032764 81.435743-36.598781 81.395812-81.508439-0.039932-44.876894-36.566017-81.389668-81.435744-81.389668z" fill="#4E6DC4" /></svg>