<?xml version="1.0" ?>
<!-- Uploaded to: SVG Repo, www.svgrepo.com, Generator: SVG Repo Mixer Tools -->
<svg width="800px" height="800px" viewBox="0 0 64 64" id="TwoTone" xmlns="http://www.w3.org/2000/svg">
<title/>
<desc/>
<g data-name="Stroke copy 3" id="Stroke_copy_3">
<path d="M51,3H13a2,2,0,0,0-2,2V59a2,2,0,0,0,2,2H51a2,2,0,0,0,2-2V5A2,2,0,0,0,51,3ZM46,41a3,3,0,0,1-3,3H37A18,18,0,0,1,19,26V15a4,4,0,0,1,4-4H42a4,4,0,0,1,4,4Z" style="fill:#a8dba8"/>
<path d="M15,7V49H49V7ZM46,41a3,3,0,0,1-3,3H37A18,18,0,0,1,19,26V15a4,4,0,0,1,4-4H42a4,4,0,0,1,4,4Z" style="fill:#cff09e"/>
<rect height="4" style="fill:#79bd9a" width="8" x="28" y="53"/>
</g>
<g data-name="Stroke Close copy 3" id="Stroke_Close_copy_3">
<path d="M51,2H13a3,3,0,0,0-3,3V59a3,3,0,0,0,3,3H51a3,3,0,0,0,3-3V5A3,3,0,0,0,51,2Zm1,57a1,1,0,0,1-1,1H13a1,1,0,0,1-1-1V5a1,1,0,0,1,1-1H51a1,1,0,0,1,1,1Z" style="fill:#3b8686"/>
<path d="M49,6H15a1,1,0,0,0-1,1V49a1,1,0,0,0,1,1H49a1,1,0,0,0,1-1V7A1,1,0,0,0,49,6ZM48,48H16V8H48Z" style="fill:#3b8686"/>
<path d="M36,52H28a1,1,0,0,0-1,1v4a1,1,0,0,0,1,1h8a1,1,0,0,0,1-1V53A1,1,0,0,0,36,52Zm-1,4H29V54h6Z" style="fill:#3b8686"/>
<circle cx="40" cy="55" r="1" style="fill:#3b8686"/>
<circle cx="24" cy="55" r="1" style="fill:#3b8686"/>
<circle cx="44" cy="55" r="1" style="fill:#3b8686"/>
<circle cx="20" cy="55" r="1" style="fill:#3b8686"/>
<path d="M20.5,21a1,1,0,0,0,1-1V17h2a3,3,0,0,0,0-6h-3a1,1,0,0,0-1,1v8A1,1,0,0,0,20.5,21Zm1-8h2a1,1,0,0,1,0,2h-2Z" style="fill:#3b8686"/>
<path d="M29.5,21h2a4,4,0,0,0,4-4V15a4,4,0,0,0-4-4h-2a1,1,0,0,0-1,1v8A1,1,0,0,0,29.5,21Zm1-8h1a2,2,0,0,1,2,2v2a2,2,0,0,1-2,2h-1Z" style="fill:#3b8686"/>
<path d="M38.5,21a1,1,0,0,0,1-1V17h3a1,1,0,0,0,0-2h-3V13h4a1,1,0,0,0,0-2h-5a1,1,0,0,0-1,1v8A1,1,0,0,0,38.5,21Z" style="fill:#3b8686"/>
<path d="M26,26a1,1,0,0,0,0,2H44a1,1,0,0,0,0-2Z" style="fill:#3b8686"/>
<path d="M20,33H44a1,1,0,0,0,0-2H20a1,1,0,0,0,0,2Z" style="fill:#3b8686"/>
<path d="M20,38H44a1,1,0,0,0,0-2H20a1,1,0,0,0,0,2Z" style="fill:#3b8686"/>
<path d="M20,43H40a1,1,0,0,0,0-2H20a1,1,0,0,0,0,2Z" style="fill:#3b8686"/>
</g>
</svg>