<?xml version="1.0" ?>
<!-- Uploaded to: SVG Repo, www.svgrepo.com, Generator: SVG Repo Mixer Tools -->
<svg width="800px" height="800px" viewBox="0 0 64 64" id="TwoTone" xmlns="http://www.w3.org/2000/svg">
<title/>
<desc/>
<g data-name="Stroke copy 3" id="Stroke_copy_3">
<path d="M7,9v8H41V43a10,10,0,0,0,20,0V9Z" style="fill:#79bd9a"/>
<path d="M14,14v3H41V39h5v5a5,5,0,0,0,10,0V14Z" style="fill:#a8dba8"/>
<path d="M41,26V43a10,10,0,0,0,2,6h4a4,4,0,0,0,4-4V26Z" style="fill:#79bd9a"/>
<path d="M41,21V43a10,10,0,0,0,2,6h8a5,5,0,0,1-5-5V21Z" style="fill:#cff09e"/>
<path d="M43,49H22A15,15,0,0,1,7,34V17H3V45a8,8,0,0,0,8,8H51A10,10,0,0,1,43,49Z" style="fill:#cff09e"/>
<rect height="12" style="fill:#a8dba8" width="14" x="8" y="35"/>
</g>
<g data-name="Stroke Close copy 3" id="Stroke_Close_copy_3">
<path d="M8,29V25.24l2.11,4.21A1,1,0,0,0,11,30a.91.91,0,0,0,.23,0A1,1,0,0,0,12,29V21a1,1,0,0,0-2,0v3.76L7.89,20.55A1,1,0,0,0,6.77,20,1,1,0,0,0,6,21v8a1,1,0,0,0,2,0Z" style="fill:#3b8686"/>
<path d="M15,30h4a1,1,0,0,0,0-2H16V26h3a1,1,0,0,0,0-2H16V22h3a1,1,0,0,0,0-2H15a1,1,0,0,0-1,1v8A1,1,0,0,0,15,30Z" style="fill:#3b8686"/>
<path d="M28.06,29.35A1,1,0,0,0,29,30l.18,0A1,1,0,0,0,30,29V21a1,1,0,0,0-2,0v2.49l-1.06-2.84a1,1,0,0,0-1.88,0L24,23.49V21a1,1,0,0,0-2,0v8a1,1,0,0,0,1.94.35L26,23.85Z" style="fill:#3b8686"/>
<path d="M35,22a1,1,0,0,1,1,1,1,1,0,0,0,2,0,3,3,0,1,0-3,3,1,1,0,1,1-1,1,1,1,0,0,0-2,0,3,3,0,1,0,3-3,1,1,0,0,1,0-2Z" style="fill:#3b8686"/>
<path d="M22,34H8a1,1,0,0,0-1,1V47a1,1,0,0,0,1,1H22a1,1,0,0,0,1-1V35A1,1,0,0,0,22,34ZM21,46H9V36H21Z" style="fill:#3b8686"/>
<path d="M37,34H31a1,1,0,0,0,0,2h6a1,1,0,0,0,0-2Z" style="fill:#3b8686"/>
<path d="M37,38H27a1,1,0,0,0,0,2H37a1,1,0,0,0,0-2Z" style="fill:#3b8686"/>
<path d="M37,42H27a1,1,0,0,0,0,2H37a1,1,0,0,0,0-2Z" style="fill:#3b8686"/>
<path d="M32,46H27a1,1,0,0,0,0,2h5a1,1,0,0,0,0-2Z" style="fill:#3b8686"/>
<path d="M61,8H7A1,1,0,0,0,6,9v7H3a1,1,0,0,0-1,1V45a9,9,0,0,0,9,9H51A11,11,0,0,0,62,43V9A1,1,0,0,0,61,8ZM11,52a7,7,0,0,1-7-7V18H40V43a11,11,0,0,0,4.7,9ZM47,27h3V46.86A4,4,0,0,1,47,43Zm4-2H47V21a1,1,0,0,0-1-1H42V17a1,1,0,0,0-1-1H15V14H55V43a4,4,0,0,1-3,3.86V26A1,1,0,0,0,51,25Zm9,18a9,9,0,0,1-18,0V22h3V43a6,6,0,0,0,12,0V13a1,1,0,0,0-1-1H14a1,1,0,0,0-1,1v3H8V10H60Z" style="fill:#3b8686"/>
</g>
</svg>