<?xml version="1.0" encoding="utf-8"?>
<!-- Uploaded to: SVG Repo, www.svgrepo.com, Generator: SVG Repo Mixer Tools -->
<svg width="800px" height="800px" viewBox="0 0 1024 1024" class="icon"  version="1.1" xmlns="http://www.w3.org/2000/svg"><path d="M367.992577 900.603388c0.016382 22.477355-18.192394 40.711728-40.669749 40.728111l-203.726559 0.474059c-22.477355 0.016382-40.711728-18.192394-40.72811-40.669749l-0.455629-788.346649c-0.016382-22.477355 18.192394-40.711728 40.669749-40.728111l203.726558-0.474059c22.477355-0.016382 40.711728 18.192394 40.728111 40.669749l0.455629 788.346649z" fill="#DCE5F7" /><path d="M123.630057 955.633129h-0.060409c-30.045915 0-54.507559-24.441167-54.527013-54.487081L68.582911 112.80759c-0.020478-30.072536 24.427856-54.554658 54.493224-54.567969l203.700962-0.486345c30.085846 0 54.560801 24.441167 54.588446 54.487081l0.452557 788.351769c0.013311 14.556578-5.64468 28.263331-15.94087 38.566688-10.290048 10.316669-23.982466 15.987969-38.546211 16.00128l-203.700962 0.473035zM326.83853 85.408418l-203.721439 0.486346c-14.840194 0.013311-26.885181 12.072632-26.879038 26.885181l0.458701 788.338458c0.007167 14.800262 12.052154 26.845249 26.851393 26.85856l203.741917-0.473035c7.204057 0 13.942246-2.808517 19.019693-7.885965 5.07028-5.077447 7.859344-11.828947 7.852177-18.999216l-0.452557-788.351769c-0.012287-14.813573-12.071608-26.85856-26.870847-26.85856z" fill="#4E6DC4" /><path d="M127.317068 160.203241h195.771994v83.956549H127.317068z" fill="#FFFFFF" /><path d="M323.09111 257.98429H127.316045c-7.636137 0-13.827571-6.184267-13.827572-13.827572v-83.951429c0-7.643304 6.191435-13.827571 13.827572-13.827571h195.775065c7.636137 0 13.827571 6.184267 13.827571 13.827571v83.951429c0 7.643304-6.191435 13.827571-13.827571 13.827572z m-181.947494-27.655143h168.119922V174.03286H141.143616v56.296287z" fill="#4E6DC4" /><path d="M127.317068 695.688099h195.771994v186.622554H127.317068z" fill="#FFFFFF" /><path d="M323.09111 896.136177H127.316045c-7.636137 0-13.827571-6.184267-13.827572-13.827572V695.689123c0-7.643304 6.191435-13.827571 13.827572-13.827571h195.775065c7.636137 0 13.827571 6.184267 13.827571 13.827571v186.619482c0 7.64228-6.191435 13.827571-13.827571 13.827572z m-181.947494-27.655143h168.119922V709.516694H141.143616v158.96434zM176.865951 300.747884h96.673205V634.21812h-96.673205z" fill="#4E6DC4" /><path d="M653.573648 900.603388c0.016382 22.477355-18.192394 40.711728-40.669749 40.728111l-203.726559 0.474059c-22.477355 0.016382-40.711728-18.192394-40.72811-40.669749l-0.455629-788.345626c-0.016382-22.477355 18.192394-40.711728 40.669749-40.72811l203.726558-0.474059c22.477355-0.016382 40.711728 18.192394 40.728111 40.669749l0.455629 788.345625z" fill="#BED3F4" /><path d="M409.210104 955.633129h-0.060409c-30.045915 0-54.507559-24.441167-54.527013-54.487081l-0.4587-788.338458c-0.020478-30.072536 24.427856-54.554658 54.493224-54.567969l203.700962-0.486345c30.099157 0 54.567968 24.441167 54.588446 54.487081l0.452557 788.351769c0.013311 14.556578-5.64468 28.263331-15.94087 38.566688-10.290048 10.316669-23.982466 15.987969-38.546211 16.00128l-203.701986 0.473035zM612.418577 85.408418l-203.721439 0.486346c-14.840194 0.013311-26.885181 12.072632-26.879038 26.885181l0.458701 788.338458c0.007167 14.800262 12.052154 26.845249 26.851393 26.85856l203.741917-0.473035c7.204057 0 13.942246-2.808517 19.019693-7.885965 5.07028-5.077447 7.859344-11.828947 7.852177-18.999216l-0.452557-788.351769c-0.005119-14.813573-12.064441-26.85856-26.870847-26.85856z" fill="#4E6DC4" /><path d="M412.897116 160.203241h195.771993v83.956549H412.897116z" fill="#FFFFFF" /><path d="M608.671157 257.98429H412.896092c-7.636137 0-13.827571-6.184267-13.827572-13.827572v-83.951429c0-7.643304 6.191435-13.827571 13.827572-13.827571h195.775065c7.636137 0 13.827571 6.184267 13.827571 13.827571v83.951429c0 7.643304-6.191435 13.827571-13.827571 13.827572z m-181.947494-27.655143h168.119923V174.03286H426.723663v56.296287z" fill="#4E6DC4" /><path d="M412.897116 695.688099h195.771993v186.622554H412.897116z" fill="#FFFFFF" /><path d="M608.671157 896.136177H412.896092c-7.636137 0-13.827571-6.184267-13.827572-13.827572V695.689123c0-7.643304 6.191435-13.827571 13.827572-13.827571h195.775065c7.636137 0 13.827571 6.184267 13.827571 13.827571v186.619482c0 7.64228-6.191435 13.827571-13.827571 13.827572z m-181.947494-27.655143h168.119923V709.516694H426.723663v158.96434zM462.445998 300.747884h96.673205V634.21812h-96.673205z" fill="#4E6DC4" /><path d="M939.153695 900.603388c0.016382 22.477355-18.192394 40.711728-40.669749 40.728111l-203.726559 0.474059c-22.477355 0.016382-40.711728-18.192394-40.72811-40.669749l-0.455629-788.345626c-0.016382-22.477355 18.192394-40.711728 40.669749-40.72811l203.726558-0.474059c22.477355-0.016382 40.711728 18.192394 40.728111 40.669749l0.455629 788.345625z" fill="#DCE5F7" /><path d="M694.790152 955.633129h-0.06041c-30.044891 0-54.507559-24.441167-54.527013-54.487081l-0.4587-788.338458c-0.020478-30.072536 24.427856-54.554658 54.493224-54.567969l203.700962-0.486345c30.099157 0 54.567968 24.441167 54.588446 54.487081l0.452557 788.351769c0.013311 14.556578-5.64468 28.263331-15.94087 38.566688-10.290048 10.316669-23.982466 15.987969-38.546211 16.00128l-203.701985 0.473035zM897.998624 85.408418l-203.721439 0.486346c-14.840194 0.013311-26.885181 12.072632-26.879038 26.885181l0.458701 788.338458c0.007167 14.800262 12.052154 26.845249 26.851393 26.85856l203.741917-0.473035c7.204057 0 13.942246-2.808517 19.019693-7.885965 5.07028-5.077447 7.859344-11.828947 7.852177-18.999216l-0.452557-788.351769c-0.005119-14.813573-12.064441-26.85856-26.870847-26.85856z" fill="#4E6DC4" /><path d="M698.477163 160.203241h195.771993v83.956549H698.477163z" fill="#FFFFFF" /><path d="M894.251204 257.98429H698.477163c-7.636137 0-13.827571-6.184267-13.827572-13.827572v-83.951429c0-7.643304 6.191435-13.827571 13.827572-13.827571h195.775065c7.636137 0 13.827571 6.184267 13.827571 13.827571v83.951429c-0.001024 7.643304-6.192458 13.827571-13.828595 13.827572z m-181.94647-27.655143h168.119922V174.03286H712.304734v56.296287z" fill="#4E6DC4" /><path d="M698.477163 695.688099h195.771993v186.622554H698.477163z" fill="#FFFFFF" /><path d="M894.251204 896.136177H698.477163c-7.636137 0-13.827571-6.184267-13.827572-13.827572V695.689123c0-7.643304 6.191435-13.827571 13.827572-13.827571h195.775065c7.636137 0 13.827571 6.184267 13.827571 13.827571v186.619482c-0.001024 7.64228-6.192458 13.827571-13.828595 13.827572z m-181.94647-27.655143h168.119922V709.516694H712.304734v158.96434z" fill="#4E6DC4" /><path d="M748.027069 300.747884h96.673205V634.21812h-96.673205z" fill="#4E6DC4" /></svg>