<?xml version="1.0" encoding="utf-8"?>
<!-- Uploaded to: SVG Repo, www.svgrepo.com, Generator: SVG Repo Mixer Tools -->
<svg width="800px" height="800px" viewBox="0 0 1024 1024" class="icon"  version="1.1" xmlns="http://www.w3.org/2000/svg"><path d="M864.713136 85.062345H153.330923c-15.406402 0-27.890636 18.257923-27.890636 40.776233v765.321516c0 22.51831 12.484234 40.775209 27.890636 40.775209h711.381189c15.403331 0 27.89166-18.256899 27.89166-40.775209V125.838578c0-22.51831-12.488329-40.776233-27.890636-40.776233z" fill="#FFFFFF" /><path d="M862.441135 111.248212c1.521494 1.952549 3.977794 6.98085 3.977794 14.590366v765.320492c0 7.609516-2.455277 12.637817-3.976771 14.589342H155.602924c-1.52047-1.952549-3.974723-6.979826-3.974722-14.589342V125.838578c0-7.609516 2.454253-12.637817 3.975746-14.590366h706.837187m2.272001-26.185867H153.330923c-15.406402 0-27.890636 18.257923-27.890636 40.776233v765.320492c0 22.51831 12.484234 40.775209 27.890636 40.775209h711.381189c15.403331 0 27.89166-18.255875 27.89166-40.775209V125.838578c0-22.51831-12.488329-40.776233-27.890636-40.776233z" fill="#4E6DC4" /><path d="M295.290575 85.062345H153.330923c-15.405379 0-27.890636 18.257923-27.890636 40.776233v765.321516c0 22.519334 12.485258 40.775209 27.890636 40.775209h141.958629V85.062345z" fill="#DCE5F7" /><path d="M269.104708 111.249236v794.5002H155.601901c-1.521494-1.952549-3.975747-6.979826-3.975747-14.589342V125.839602c0-7.609516 2.454253-12.637817 3.975747-14.590366h113.502807m26.185867-26.186891H153.330923c-15.405379 0-27.890636 18.257923-27.890636 40.776233v765.320492c0 22.51831 12.485258 40.775209 27.890636 40.775209h141.958629V85.062345h0.001023z" fill="#4E6DC4" /><path d="M786.423793 264.728622c0 10.313597-8.361048 18.674644-18.674645 18.674645H382.490793c-10.313597 0-18.674644-8.361048-18.674644-18.674645s8.361048-18.674644 18.674644-18.674644h385.259379c10.312573 0 18.673621 8.361048 18.673621 18.674644zM786.423793 386.613979c0 10.313597-8.361048 18.674644-18.674645 18.674645H382.490793c-10.313597 0-18.674644-8.361048-18.674644-18.674645s8.361048-18.674644 18.674644-18.674644h385.259379c10.312573 0 18.673621 8.361048 18.673621 18.674644zM786.423793 508.499336c0 10.313597-8.361048 18.674644-18.674645 18.674645H382.490793c-10.313597 0-18.674644-8.361048-18.674644-18.674645s8.361048-18.674644 18.674644-18.674644h385.259379c10.312573 0 18.673621 8.361048 18.673621 18.674644zM786.423793 630.384693c0 10.313597-8.361048 18.674644-18.674645 18.674644H382.490793c-10.313597 0-18.674644-8.361048-18.674644-18.674644s8.361048-18.674644 18.674644-18.674645h385.259379c10.312573 0 18.673621 8.360024 18.673621 18.674645zM786.423793 752.269026c0 10.313597-8.361048 18.674644-18.674645 18.674644H382.490793c-10.313597 0-18.674644-8.361048-18.674644-18.674644s8.361048-18.674644 18.674644-18.674645h385.259379c10.312573 0 18.673621 8.361048 18.673621 18.674645z" fill="#4E6DC4" /><path d="M211.592046 250.083991m-29.357864 0a29.357864 29.357864 0 1 0 58.715728 0 29.357864 29.357864 0 1 0-58.715728 0Z" fill="#4E6DC4" /><path d="M211.592046 504.469323m-29.357864 0a29.357864 29.357864 0 1 0 58.715728 0 29.357864 29.357864 0 1 0-58.715728 0Z" fill="#4E6DC4" /><path d="M211.592046 766.914682m-29.357864 0a29.357864 29.357864 0 1 0 58.715728 0 29.357864 29.357864 0 1 0-58.715728 0Z" fill="#4E6DC4" /></svg>