<?xml version="1.0" encoding="utf-8"?><!-- Uploaded to: SVG Repo, www.svgrepo.com, Generator: SVG Repo Mixer Tools -->
<svg width="800px" height="800px" viewBox="0 0 48 48" xmlns="http://www.w3.org/2000/svg"><title>24 Technology Devices icons</title><path d="M5.5,35.5V11a2,2,0,0,1,2-2h33a2,2,0,0,1,2,2V35.5" fill="none" stroke="#000000" stroke-miterlimit="10" stroke-width="2"/><rect x="11" y="14" width="26" height="16" rx="1" ry="1" fill="none" stroke="#000000" stroke-linecap="round" stroke-miterlimit="10" stroke-width="2"/><path d="M43.38,41H4.62a1,1,0,0,1-.89-0.55l-2-4A1,1,0,0,1,2.62,35H45.38a1,1,0,0,1,.89,1.45l-2,4A1,1,0,0,1,43.38,41Z" fill="none" stroke="#000000" stroke-linecap="round" stroke-miterlimit="10" stroke-width="2"/><rect width="48" height="48" fill="none"/></svg>