<?xml version="1.0" encoding="utf-8"?>
<!-- Uploaded to: SVG Repo, www.svgrepo.com, Generator: SVG Repo Mixer Tools -->
<svg width="800px" height="800px" viewBox="0 0 1024 1024" class="icon"  version="1.1" xmlns="http://www.w3.org/2000/svg"><path d="M531.873614 738.429168c37.690243 0 49.969699-3.969603 49.9697-45.685763V372.546819c0-43.299087-12.279457-44.614779-49.9697-44.614779H157.662982c-45.341738 0-82.099221 36.757483-82.099221 82.09922v246.297663c0 45.341738 36.757483 82.099221 82.099221 82.099221h374.210632z" fill="#DCE5F7" /><path d="M531.871566 750.867327H157.66503c-52.130097 0-94.541475-42.411378-94.541476-94.535332V410.033308c0-52.130097 42.411378-94.541475 94.541476-94.541475h374.206536c39.859856 0 62.414002 2.648791 62.414002 57.057034v320.193514c0.001024 49.73011-19.255187 58.124946-62.414002 58.124946zM157.66503 340.372246c-38.407986 0-69.661062 31.253076-69.661062 69.661062v246.298687c0 38.407986 31.253076 69.654919 69.661062 69.654918h374.206536c33.822004 0 37.533588-1.07508 37.533589-33.245556V372.548867c0-32.175596-1.408866-32.175596-37.533589-32.175597H157.66503z" fill="#4E6DC4" /><path d="M159.425088 254.627994v314.005151s-83.843921 6.576415-83.843921 85.488281V335.184219s-3.28872-70.692114 83.843921-80.556225z" fill="#BED3F4" /><path d="M75.582191 676.918233c-6.870271 0-12.440207-5.569936-12.440207-12.440207V335.185243c-0.024573-0.242661-2.690771-81.870894 94.888573-92.919641 3.547763-0.431056 7.046379 0.729006 9.682883 3.085991a12.432016 12.432016 0 0 1 4.154927 9.275377v314.009247c0 6.493481-4.993489 11.893452-11.46854 12.40437-2.922169 0.242661-72.376406 6.845697-72.376406 73.080839v10.3566c-0.001024 6.870271-5.571984 12.440207-12.44123 12.440207z m71.403715-407.646631c-60.646776 13.44259-59.079207 63.082599-58.975795 65.33617l0.012286 254.037212c17.269874-17.955877 40.42504-27.218967 58.964532-30.820996V269.271602z" fill="#4E6DC4" /><path d="M476.179372 216.580415h455.827603c15.485242 0 28.040124 13.067848 28.040124 29.185851v526.827907c0 16.121074-12.554882 29.184827-28.040124 29.184828H292.804582c-15.485242 0-28.041147-13.063753-28.041148-29.184828V245.766266c0-16.118003 12.555906-29.185851 28.041148-29.185851h183.37479z" fill="#FFFFFF" /><path d="M932.006975 241.460828c1.493849 0 3.158686 1.76825 3.158686 4.305438v526.827907c0 2.536164-1.664838 4.304414-3.158686 4.304414H292.804582c-1.494873 0-3.15971-1.767226-3.15971-4.304414V245.766266c0-2.537188 1.665861-4.305438 3.15971-4.305438h639.202393m0-24.880413H292.804582c-15.485242 0-28.041147 13.067848-28.041148 29.185851v526.827907c0 16.121074 12.555906 29.184827 28.041148 29.184828h639.202393c15.485242 0 28.040124-13.063753 28.040124-29.184828V245.766266c0-16.118003-12.554882-29.185851-28.040124-29.185851z" fill="#4E6DC4" /><path d="M864.684467 387.498616c0 12.319388-10.303358 22.305342-23.012846 22.305342H383.138912c-12.709489 0-23.012847-9.986977-23.012846-22.305342 0-12.319388 10.303358-22.305342 23.012846-22.305342h458.531685c12.710512-0.001024 23.01387 9.985954 23.01387 22.305342zM864.684467 518.481194c0 12.319388-10.303358 22.305342-23.012846 22.305342H383.138912c-12.709489 0-23.012847-9.986977-23.012846-22.305342 0-12.319388 10.303358-22.305342 23.012846-22.305342h458.531685c12.710512-0.001024 23.01387 9.985954 23.01387 22.305342zM586.839874 649.463772c0 11.108132-9.290735 20.114227-20.751084 20.114227H380.878174c-11.460348 0-20.751084-9.005071-20.751084-20.114227s9.290735-20.114227 20.751084-20.114227h185.210616c11.460348 0 20.751084 9.005071 20.751084 20.114227z" fill="#4E6DC4" /></svg>