<?xml version="1.0" ?>
<!-- Uploaded to: SVG Repo, www.svgrepo.com, Generator: SVG Repo Mixer Tools -->
<svg width="800px" height="800px" viewBox="0 0 64 64" id="TwoTone" xmlns="http://www.w3.org/2000/svg">
<title/>
<desc/>
<g data-name="Stroke copy 3" id="Stroke_copy_3">
<path d="M36,12V3H32V32H58V28H52A16,16,0,0,1,36,12Z" style="fill:#cff09e"/>
<circle cx="39" cy="22" r="2" style="fill:#79bd9a"/>
<path d="M36,41V32H32V61H58V57H52A16,16,0,0,1,36,41Z" style="fill:#cff09e"/>
<circle cx="39" cy="51" r="2" style="fill:#79bd9a"/>
<path d="M10,12V3H6V32H32V28H26A16,16,0,0,1,10,12Z" style="fill:#cff09e"/>
<circle cx="13" cy="22" r="2" style="fill:#79bd9a"/>
<path d="M10,41V32H6V61H32V57H26A16,16,0,0,1,10,41Z" style="fill:#cff09e"/>
<circle cx="13" cy="51" r="2" style="fill:#79bd9a"/>
</g>
<g data-name="Stroke Close copy 3" id="Stroke_Close_copy_3">
<path d="M26,7H12a1,1,0,0,0,0,2H26a1,1,0,0,0,0-2Z" style="fill:#3b8686"/>
<path d="M26,11H12a1,1,0,0,0,0,2H26a1,1,0,0,0,0-2Z" style="fill:#3b8686"/>
<path d="M14,19.18V18a1,1,0,0,0-2,0v1.18a3,3,0,0,0,0,5.64V28a1,1,0,0,0,2,0V24.82a3,3,0,0,0,0-5.64ZM13,23a1,1,0,1,1,1-1A1,1,0,0,1,13,23Z" style="fill:#3b8686"/>
<path d="M58,2H6A1,1,0,0,0,5,3V61a1,1,0,0,0,1,1H58a1,1,0,0,0,1-1V3A1,1,0,0,0,58,2ZM57,31H33V4H57ZM7,4H31V31H7ZM7,33H31V60H7ZM57,60H33V33H57Z" style="fill:#3b8686"/>
<path d="M38,9H52a1,1,0,0,0,0-2H38a1,1,0,0,0,0,2Z" style="fill:#3b8686"/>
<path d="M38,13H52a1,1,0,0,0,0-2H38a1,1,0,0,0,0,2Z" style="fill:#3b8686"/>
<path d="M38,24.82V28a1,1,0,0,0,2,0V24.82a3,3,0,0,0,0-5.64V18a1,1,0,0,0-2,0v1.18a3,3,0,0,0,0,5.64ZM39,21a1,1,0,1,1-1,1A1,1,0,0,1,39,21Z" style="fill:#3b8686"/>
<path d="M26,36H12a1,1,0,0,0,0,2H26a1,1,0,0,0,0-2Z" style="fill:#3b8686"/>
<path d="M26,40H12a1,1,0,0,0,0,2H26a1,1,0,0,0,0-2Z" style="fill:#3b8686"/>
<path d="M14,48.18V47a1,1,0,0,0-2,0v1.18a3,3,0,0,0,0,5.64V57a1,1,0,0,0,2,0V53.82a3,3,0,0,0,0-5.64ZM13,52a1,1,0,1,1,1-1A1,1,0,0,1,13,52Z" style="fill:#3b8686"/>
<path d="M38,38H52a1,1,0,0,0,0-2H38a1,1,0,0,0,0,2Z" style="fill:#3b8686"/>
<path d="M38,42H52a1,1,0,0,0,0-2H38a1,1,0,0,0,0,2Z" style="fill:#3b8686"/>
<path d="M38,53.82V57a1,1,0,0,0,2,0V53.82a3,3,0,0,0,0-5.64V47a1,1,0,0,0-2,0v1.18a3,3,0,0,0,0,5.64ZM39,50a1,1,0,1,1-1,1A1,1,0,0,1,39,50Z" style="fill:#3b8686"/>
</g>
</svg>