<?xml version="1.0" encoding="utf-8"?>
<!-- Uploaded to: SVG Repo, www.svgrepo.com, Generator: SVG Repo Mixer Tools -->
<svg width="800px" height="800px" viewBox="0 0 1024 1024" class="icon"  version="1.1" xmlns="http://www.w3.org/2000/svg"><path d="M206.782856 133.042635c0-20.395796 16.146672-36.93052 36.061241-36.93052H779.650791c19.918665 0 36.060217 16.535748 36.060217 36.93052v342.14152c0 20.395796-16.140528 36.932568-36.060217 36.932568H242.844097c-19.91457 0-36.061241-16.536772-36.061241-36.932568v-342.14152z" fill="#DCE5F7" /><path d="M779.650791 120.082295c6.666517 0 12.090038 5.813621 12.090038 12.96034v342.14152c0 7.147743-5.423521 12.962388-12.090038 12.962389H242.844097c-6.667541 0-12.091062-5.814645-12.091061-12.962389v-342.14152c0-7.14672 5.424544-12.96034 12.091061-12.96034H779.650791m0-23.971203H242.844097c-19.91457 0-36.061241 16.535748-36.061241 36.930519v342.14152c0 20.395796 16.146672 36.932568 36.061241 36.932568H779.650791c19.919689 0 36.060217-16.536772 36.060217-36.932568v-342.14152c0-20.394772-16.140528-36.93052-36.060217-36.930519z" fill="#4E6DC4" /><path d="M367.713056 198.104404h557.894636c18.094101 0 32.76433 14.512551 32.76433 32.41109v467.743581c0 17.902635-14.670229 32.410066-32.76433 32.410066H96.887197c-18.094101 0-32.765354-14.507431-32.765355-32.410066V230.515494c0-17.899563 14.671253-32.41109 32.765355-32.41109h270.825859z" fill="#FFFFFF" /><path d="M925.607692 222.074584c4.848097 0 8.793127 3.786328 8.793127 8.44091v467.743581c0 4.653559-3.94503 8.439887-8.793127 8.439887H96.887197c-4.849121 0-8.795175-3.786328-8.795175-8.439887V230.515494c0-4.654583 3.946054-8.440911 8.795175-8.44091h828.720495m0-23.971204H96.887197c-18.094101 0-32.765354 14.512551-32.765355 32.412114v467.743581c0 17.902635 14.671253 32.410066 32.765355 32.410066h828.719471c18.094101 0 32.76433-14.507431 32.76433-32.410066V230.515494c0.001024-17.899563-14.669205-32.412114-32.763306-32.412114z" fill="#4E6DC4" /><path d="M741.299118 906.072984c0.010239 13.820404-11.185947 25.031948-25.006351 25.042187l-409.774265 0.290784c-13.820404 0.010239-25.031948-11.185947-25.042187-25.006352l-0.280545-353.770809c-0.010239-13.820404 11.185947-25.031948 25.006351-25.042188l409.774266-0.290783c13.820404-0.010239 25.031948 11.185947 25.042187 25.006351l0.280544 353.77081z" fill="#DCE5F7" /><path d="M306.524645 943.394628h-0.023549c-20.388628 0-36.997072-16.591038-37.009359-36.98581l-0.280545-353.768762c-0.011263-20.406035 16.573632-37.020622 36.973523-37.038027l409.779385-0.292832c20.412178 0 37.032908 16.591038 37.044171 36.979667l0.280545 353.773881c0 20.412178-16.597181 37.020622-36.98581 37.038028l-409.778361 0.293855z m409.475291-404.115251l-409.791671 0.292831c-7.186651 0.006143-13.038156 5.857648-13.026893 13.044299l0.280544 353.768762c0.011263 7.186651 5.852529 13.038156 13.038156 13.038156l409.779385-0.292832c7.186651-0.006143 13.038156-5.863791 13.038155-13.056585l-0.280544-353.762619c-0.010239-7.185627-5.850481-13.032012-13.037132-13.032012z" fill="#4E6DC4" /><path d="M838.958325 527.294799c0 9.659334-7.299278 17.488985-16.302302 17.488985H199.837842c-9.004048 0-16.302302-7.830675-16.302302-17.488985 0-9.659334 7.299278-17.488985 16.302302-17.488985h622.818181c9.003024 0 16.302302 7.830675 16.302302 17.488985zM677.773177 669.259571c0 11.103012-7.93204 20.103988-17.717311 20.103988H362.437999c-9.785272 0-17.717312-9.000976-17.717312-20.103988 0-11.103012 7.93204-20.103988 17.717312-20.103988h297.617867c9.785272 0 17.717312 9.000976 17.717311 20.103988zM677.773177 793.99952c0 11.103012-7.93204 20.103988-17.717311 20.103988H362.437999c-9.785272 0-17.717312-9.000976-17.717312-20.103988 0-11.103012 7.93204-20.103988 17.717312-20.103988h297.617867c9.785272 0 17.717312 9.000976 17.717311 20.103988z" fill="#4E6DC4" /><path d="M608.595389 339.116963m-33.875246 0a33.875246 33.875246 0 1 0 67.750492 0 33.875246 33.875246 0 1 0-67.750492 0Z" fill="#BED3F4" /><path d="M608.636345 384.975763h-0.034812c-25.281776 0-45.857776-20.558593-45.869039-45.828084-0.011263-25.281776 20.541187-45.869039 45.82194-45.892588 25.304302 0 45.892588 20.558593 45.903851 45.834227 0.011263 12.242597-4.751852 23.765402-13.412898 32.432592-8.649783 8.667189-20.166445 13.448734-32.409042 13.453853z m-0.047099-67.750492c-12.067512 0.011263-21.898859 9.83749-21.886573 21.910122 0.011263 12.055226 9.831347 21.869167 21.89886 21.869166a21.775993 21.775993 0 0 0 15.485241-6.425904 21.757563 21.757563 0 0 0 6.402355-15.479098c-0.012287-12.059321-9.832371-21.874286-21.899883-21.874286z" fill="#4E6DC4" /><path d="M715.063081 339.116963m-33.875246 0a33.875246 33.875246 0 1 0 67.750492 0 33.875246 33.875246 0 1 0-67.750492 0Z" fill="#BED3F4" /><path d="M715.098917 384.975763h-0.034812c-25.26949 0-45.845489-20.558593-45.857776-45.828084-0.011263-25.281776 20.541187-45.869039 45.82194-45.892588 25.293039 0 45.881325 20.558593 45.892588 45.834227 0.011263 12.242597-4.751852 23.765402-13.412898 32.432592-8.649783 8.667189-20.166445 13.448734-32.409042 13.453853z m-0.035836-67.750492c-12.067512 0.011263-21.898859 9.83749-21.886573 21.910122 0.011263 12.055226 9.820084 21.869167 21.886573 21.869166a21.775993 21.775993 0 0 0 15.485242-6.425904 21.757563 21.757563 0 0 0 6.402355-15.479098c-0.011263-12.059321-9.831347-21.874286-21.887597-21.874286z" fill="#4E6DC4" /><path d="M821.530773 339.116963m-33.875246 0a33.875246 33.875246 0 1 0 67.750492 0 33.875246 33.875246 0 1 0-67.750492 0Z" fill="#BED3F4" /><path d="M821.561489 384.975763h-0.034812c-25.26949 0-45.845489-20.558593-45.857776-45.828084-0.011263-25.281776 20.541187-45.869039 45.82194-45.892588 25.281776 0 45.869039 20.558593 45.903851 45.82194 0.011263 12.260003-4.751852 23.777689-13.412898 32.443855-8.661046 8.668213-20.177708 13.449758-32.420305 13.454877z m-0.035836-67.750492c-12.067512 0.011263-21.898859 9.83749-21.886573 21.910122 0.011263 12.055226 9.820084 21.869167 21.886573 21.869166 5.852529-0.006143 11.365127-2.288384 15.496505-6.425904a21.757563 21.757563 0 0 0 6.402354-15.479098c-0.011263-12.054202-9.843634-21.874286-21.898859-21.874286z" fill="#4E6DC4" /></svg>