<?xml version="1.0" encoding="utf-8"?>
<!-- Uploaded to: SVG Repo, www.svgrepo.com, Generator: SVG Repo Mixer Tools -->
<svg width="800px" height="800px" viewBox="0 0 1024 1024" class="icon"  version="1.1" xmlns="http://www.w3.org/2000/svg"><path d="M956.887389 582.502696v135.751835c0 32.726447-19.882829 59.258387-44.406931 59.258388H110.903163c-24.529221 0-44.404883-26.532964-44.404883-59.258388V577.301358c0-32.726447 19.875662-59.260435 44.404883-59.260435H912.479434c24.523077 0 44.40693 26.535012 44.406931 59.260435v5.201338z" fill="#DCE5F7" /><path d="M912.480458 538.839106c11.165469 0 23.607724 15.795479 23.607724 38.462252V718.254531c0 22.664726-12.441231 38.459181-23.607724 38.459181H110.903163c-11.165469 0-23.605676-15.794455-23.605676-38.459181V577.301358c0-22.665749 12.441231-38.462252 23.605676-38.462252h801.577295m0-20.799206H110.903163c-24.529221 0-44.404883 26.535012-44.404883 59.261458V718.254531c0 32.726447 19.876686 59.258387 44.404883 59.258388H912.479434c24.523077 0 44.40693-26.532964 44.406931-59.258388V577.301358c0.001024-32.726447-19.882829-59.261459-44.405907-59.261458z" fill="#4E6DC4" /><path d="M836.399635 643.585646c-8.089718 0-14.648727-9.944998-14.648727-22.212168v-70.338874c0-12.26717 6.557986-22.212168 14.648727-22.212168 8.089718 0 14.648727 9.944998 14.648728 22.212168v70.338874c0 12.26717-6.557986 22.212168-14.648728 22.212168zM186.98501 643.585646c-8.089718 0-14.648727-9.944998-14.648728-22.212168v-70.338874c0-12.26717 6.557986-22.212168 14.648728-22.212168 8.089718 0 14.648727 9.944998 14.648727 22.212168v70.338874c0 12.26717-6.557986 22.212168-14.648727 22.212168zM619.928776 643.585646c-8.089718 0-14.648727-9.944998-14.648727-22.212168v-70.338874c0-12.26717 6.557986-22.212168 14.648727-22.212168 8.089718 0 14.648727 9.944998 14.648727 22.212168v70.338874c-0.001024 12.26717-6.559009 22.212168-14.648727 22.212168zM403.456893 643.585646c-8.089718 0-14.648727-9.944998-14.648728-22.212168v-70.338874c0-12.26717 6.557986-22.212168 14.648728-22.212168 8.089718 0 14.648727 9.944998 14.648727 22.212168v70.338874c0 12.26717-6.559009 22.212168-14.648727 22.212168zM782.282176 610.267394c-8.089718 0-14.648727-7.057642-14.648727-15.763738v-49.918506c0-8.706097 6.557986-15.763738 14.648727-15.763738 8.089718 0 14.648727 7.057642 14.648728 15.763738v49.918506c0 8.706097-6.559009 15.763738-14.648728 15.763738zM728.164718 610.267394c-8.089718 0-14.648727-7.057642-14.648728-15.763738v-49.918506c0-8.706097 6.557986-15.763738 14.648728-15.763738 8.089718 0 14.648727 7.057642 14.648727 15.763738v49.918506c-0.001024 8.706097-6.559009 15.763738-14.648727 15.763738zM674.046235 610.267394c-8.089718 0-14.648727-7.057642-14.648728-15.763738v-49.918506c0-8.706097 6.557986-15.763738 14.648728-15.763738 8.089718 0 14.648727 7.057642 14.648727 15.763738v49.918506c0 8.706097-6.557986 15.763738-14.648727 15.763738zM565.810293 610.267394c-8.089718 0-14.648727-7.057642-14.648727-15.763738v-49.918506c0-8.706097 6.557986-15.763738 14.648727-15.763738 8.089718 0 14.648727 7.057642 14.648728 15.763738v49.918506c0 8.706097-6.557986 15.763738-14.648728 15.763738zM511.692834 610.267394c-8.089718 0-14.648727-7.057642-14.648727-15.763738v-49.918506c0-8.706097 6.557986-15.763738 14.648727-15.763738 8.089718 0 14.648727 7.057642 14.648728 15.763738v49.918506c0 8.706097-6.559009 15.763738-14.648728 15.763738zM457.575376 610.267394c-8.089718 0-14.648727-7.057642-14.648728-15.763738v-49.918506c0-8.706097 6.557986-15.763738 14.648728-15.763738 8.089718 0 14.648727 7.057642 14.648727 15.763738v49.918506c-0.001024 8.706097-6.559009 15.763738-14.648727 15.763738zM349.339434 610.267394c-8.089718 0-14.648727-7.057642-14.648727-15.763738v-49.918506c0-8.706097 6.557986-15.763738 14.648727-15.763738 8.089718 0 14.648727 7.057642 14.648727 15.763738v49.918506c-0.001024 8.706097-6.559009 15.763738-14.648727 15.763738zM295.220951 610.267394c-8.089718 0-14.648727-7.057642-14.648727-15.763738v-49.918506c0-8.706097 6.557986-15.763738 14.648727-15.763738 8.089718 0 14.648727 7.057642 14.648728 15.763738v49.918506c0 8.706097-6.557986 15.763738-14.648728 15.763738zM241.103492 610.267394c-8.089718 0-14.648727-7.057642-14.648727-15.763738v-49.918506c0-8.706097 6.557986-15.763738 14.648727-15.763738 8.089718 0 14.648727 7.057642 14.648728 15.763738v49.918506c0 8.706097-6.559009 15.763738-14.648728 15.763738z" fill="#4E6DC4" /><path d="M257.441631 256.713648c-28.541827 0.011263-50.861504 28.41077-50.835907 64.673717 0.010239 18.791367 6.325564 36.526085 17.298543 48.72875 8.05593 8.958997 18.157582 14.402995 28.840802 15.672613h128.802726l346.773577-0.377814c4.87779 0.017406 9.67674-1.377126 13.967844-3.954245l55.794583-35.200154c0.127986-0.119795 4.348441-3.063465 6.095189-5.006799 9.928616-11.042603 9.923497-28.970835-0.020478-40.030845-1.97917-2.20033-6.752524-5.407138-6.91225-5.538195l-55.024621-35.715168c-2.821828-1.702721-6.702353-2.867903-10.422129-3.466876h-327.67402l-146.683859 0.215016z m0.051194 113.208953c-8.509511-0.011263-16.809125-4.006463-23.310797-11.236118-8.268898-9.195514-13.022797-22.804998-13.043276-37.309357-0.010239-13.624842 3.941959-26.147983 11.11018-35.287184 6.69621-8.521798 15.648039-13.208121 25.212152-13.214264l17.375334-0.074744c-1.161086 1.292143-2.415345 2.377462-3.49452 3.818069-9.03886 12.064441-14.020062 27.913162-14.008799 44.648567-0.005119 18.626522 6.289728 36.315165 17.252467 48.574144l-17.092741 0.080887z m16.89206-66.109204l411.404291 0.005119c-1.233782 5.635465-2.095893 11.441919-2.091798 17.437791 0 6.984946 1.140608 13.728254 2.837186 20.209449H275.258259a61.670661 61.670661 0 0 1-3.391108-20.209449c-0.010239-6.173005 0.945046-12.013247 2.517734-17.44291z m33.434975 65.885997c-11.969219-0.165869-22.493737-8.086646-29.031244-20.145968l410.150031-0.005119c2.841282 7.424192 6.73307 14.184907 11.660006 19.815252l-392.778793 0.335835z m482.00016-60.113332c0.688051 0.480202 2.873022 1.925928 4.136497 3.149472 4.172333 4.754923 4.167213 12.384917-0.057338 17.083526-0.924568 0.891804-2.755275 2.161422-3.412609 2.629338l-25.011471 15.779097c-6.033756-6.355256-10.066841-15.928584-10.057626-26.993713-0.010239-11.213592 4.059705-21.020366 10.263427-27.347977l24.13912 15.700257z m-54.52087-35.406978l23.979395 15.568176c-6.773001 7.807126-11.14192 18.906043-11.131681 31.491641-0.005119 11.917001 3.911242 23.153119 10.62281 31.234646l-23.654823 14.922105c-1.603404 0.960404-3.555954 1.497944-5.524885 1.674052-17.688643-3.258003-31.363655-23.312845-31.35444-47.81954-0.005119-25.908394 15.257939-46.882685 34.416881-48.232166 0.910234 0.315357 1.810229 0.653239 2.646743 1.161086z m-37.598093 2.435823c-4.214312 5.623178-7.451837 12.139184-9.804725 19.12413l-410.478699-0.005119c6.413618-13.739517 17.755195-22.958581 30.783113-22.964724 0.081911 0 0.158702 0.028669 0.236517 0.022525l-0.005119-0.154606 393.05217-0.354265c-1.279857 1.422177-2.594525 2.748108-3.783257 4.332059z" fill="#4E6DC4" /></svg>