<?xml version="1.0" encoding="utf-8"?>
<!-- Uploaded to: SVG Repo, www.svgrepo.com, Generator: SVG Repo Mixer Tools -->
<svg width="800px" height="800px" viewBox="0 0 1024 1024" class="icon"  version="1.1" xmlns="http://www.w3.org/2000/svg"><path d="M409.564369 82.349049h516.15595c17.53506 0 31.750684 16.789672 31.750684 37.497752v676.871135c0 20.7132-14.216648 37.496728-31.750684 37.496728H201.919401c-17.53506 0-31.751708-16.783528-31.751708-37.496728V119.846801c0-20.708081 14.217672-37.497752 31.751708-37.497752h207.644968z" fill="#DCE5F7" /><path d="M924.70053 112.920217c0.82218 0.883613 2.199306 3.268242 2.199305 6.926584v676.871135c0 3.658342-1.376102 6.042971-2.197258 6.92556H202.937143c-0.821156-0.882589-2.198282-3.266194-2.198282-6.92556V119.846801c0-3.658342 1.377126-6.043995 2.20033-6.926584h721.761339m1.020813-30.571168H201.920425c-17.53506 0-31.751708 16.789672-31.751708 37.497752v676.871135c0 20.7132 14.217672 37.496728 31.751708 37.496728H925.722367c17.53506 0 31.750684-16.783528 31.750684-37.496728V119.846801c-0.001024-20.708081-14.217672-37.497752-31.751708-37.497752z" fill="#4E6DC4" /><path d="M305.7854 195.299982h516.155951c17.53506 0 31.750684 16.789672 31.750683 37.497753v676.871134c0 20.7132-14.216648 37.496728-31.750683 37.496728H98.141456c-17.53506 0-31.751708-16.783528-31.751708-37.496728V232.797735c0-20.708081 14.217672-37.497752 31.751708-37.497753h207.643944z" fill="#FFFFFF" /><path d="M820.922585 225.87115c0.82218 0.883613 2.199306 3.268242 2.199305 6.926585v676.871134c0 3.658342-1.376102 6.042971-2.197258 6.92556H99.159198c-0.821156-0.882589-2.198282-3.266194-2.198282-6.92556V232.797735c0-3.658342 1.377126-6.043995 2.20033-6.926585h721.761339m1.019789-30.571168H98.141456c-17.53506 0-31.751708 16.789672-31.751708 37.497753v676.871134c0 20.7132 14.217672 37.496728 31.751708 37.496728H821.942374c17.53506 0 31.750684-16.783528 31.750684-37.496728V232.797735c0-20.708081-14.215624-37.497752-31.750684-37.497753z" fill="#4E6DC4" /><path d="M741.503896 368.720559c0 13.949414-11.667173 25.258227-26.058906 25.258227H196.226599c-14.391732 0-26.058905-11.308813-26.058906-25.258227s11.667173-25.258227 26.058906-25.258227h519.219415c14.390708 0.001024 26.057882 11.308813 26.057882 25.258227zM509.614347 517.67642c0 13.949414-6.931704 25.258227-15.48217 25.258227H185.649863c-8.550466 0-15.48217-11.308813-15.48217-25.258227s6.931704-25.258227 15.48217-25.258227h308.482314c8.550466 0 15.48217 11.308813 15.48217 25.258227z" fill="#4E6DC4" /><path d="M741.505943 653.664774c0-40.032892-32.435663-72.467532-72.467531-72.467532-17.94359 0-34.089238 6.826243-46.683028 17.667141-2.736845 2.636505-4.489737 6.304062-4.489737 10.422129 0 8.00064 6.494505 14.492073 14.492073 14.492073 3.522166 0 6.650135-1.423201 9.146368-3.507831l0.083958 0.071672c7.466172-6.2457 16.912538-10.161038 27.450366-10.161038 23.998848 0 43.47929 19.46406 43.47929 43.47929 0 13.273649-6.086998 25.017614-15.478074 32.986514h0.027644l-81.997856 82.006047c-7.985282 9.363431-19.712864 15.45043-32.986513 15.450429-24.014206 0-43.47929-19.476347-43.479291-43.47929 0-13.249076 6.035804-24.985874 15.399236-32.938391l41.641416-41.606604c2.564833-2.316029 5.884269-3.838546 9.622474-3.838546 8.001664 0 14.492073 6.479146 14.492073 14.492073 0 3.099301-1.185659 5.811573-2.85664 8.172653l-40.246884 40.911386c-2.289408 2.563809-3.783256 5.856624-3.783257 9.56616 0 8.001664 6.491433 14.492073 14.492073 14.492073 3.71056 0 7.013614-1.505111 9.567185-3.798615l39.045867-38.810373 1.56552-1.653575c6.870271-7.693474 11.204377-17.738813 11.204377-28.883805 0-24.01523-19.477371-43.47929-43.47929-43.47929-10.897212 0-20.739821 4.173357-28.376982 10.796871l-2.365175 2.156302-40.966676 40.939031c-14.607772 13.246004-23.942534 32.187883-23.942534 53.477531 0 40.028797 32.434639 72.468556 72.467532 72.468555 21.15859 0 40.027773-9.263091 53.277872-23.723423l82.437104-82.437103-0.031741-0.016382c14.475691-13.233718 23.738781-32.087542 23.738781-53.246132z" fill="#4E6DC4" /></svg>