<?xml version="1.0" encoding="utf-8"?><!-- Uploaded to: SVG Repo, www.svgrepo.com, Generator: SVG Repo Mixer Tools -->
<svg width="800px" height="800px" viewBox="0 0 48 48" xmlns="http://www.w3.org/2000/svg"><title>24 Technology Devices icons</title><path d="M4.43,12.22H32.55a0.94,0.94,0,0,1,.94.94V32.22a15,15,0,0,1-15,15h-1a14,14,0,0,1-14-14V13.15a0.94,0.94,0,0,1,.94-0.94Z" transform="translate(26.43 -4.37) rotate(45)" fill="none" stroke="#000000" stroke-miterlimit="10" stroke-width="2"/><path d="M24.5,9.56l7.78-7.78a1.06,1.06,0,0,1,1.49.08L46.34,14.44a1.06,1.06,0,0,1,.08,1.49l-7.78,7.78" fill="none" stroke="#000000" stroke-miterlimit="10" stroke-width="2"/><circle cx="32.63" cy="9.92" r="2" transform="translate(2.54 25.98) rotate(-45)"/><circle cx="38.29" cy="15.58" r="2" transform="translate(0.2 31.64) rotate(-45)"/><rect width="48" height="48" fill="none"/></svg>