<?xml version="1.0" encoding="utf-8"?>
<!-- Uploaded to: SVG Repo, www.svgrepo.com, Generator: SVG Repo Mixer Tools -->
<svg width="800px" height="800px" viewBox="0 0 1024 1024" class="icon"  version="1.1" xmlns="http://www.w3.org/2000/svg"><path d="M511.260755 514.037532m-432.292575 0a432.292575 432.292575 0 1 0 864.58515 0 432.292575 432.292575 0 1 0-864.58515 0Z" fill="#DCE5F7" /><path d="M511.258707 960.021502c-245.91473 0-445.982946-200.061049-445.982946-445.982946 0-245.91473 200.067192-445.982946 445.982946-445.982946s445.982946 200.067192 445.982946 445.982946c0 245.921897-200.067192 445.982946-445.982946 445.982946z m0-864.586175c-230.821636 0-418.604252 187.781592-418.604252 418.603229 0 230.815493 187.781592 418.603228 418.604252 418.603228s418.603228-187.78876 418.603228-418.603228c0.001024-230.821636-187.780569-418.603228-418.603228-418.603229z" fill="#4E6DC4" /><path d="M629.233846 291.053738H291.442814a8.66207 8.66207 0 0 0-8.663093 8.663094v428.642424a8.66207 8.66207 0 0 0 8.663093 8.66207h439.636905a8.66207 8.66207 0 0 0 8.66207-8.66207V405.022413l-110.507943-113.968675z" fill="#FFFFFF" /><path d="M731.078695 750.709649H291.445886c-12.325532 0-22.358584-10.026909-22.358584-22.352441V299.71376c0-12.325532 10.033052-22.352441 22.358584-22.35244h337.791031c3.703393 0 7.25218 1.504088 9.826228 4.157998l110.504871 113.973795a13.683203 13.683203 0 0 1 3.86312 9.531348v323.332747c0 12.325532-10.026909 22.352441-22.352441 22.352441z m-434.612699-27.378694h429.586446V410.572896L623.441727 304.740013H296.465996v418.590942z" fill="#4E6DC4" /><path d="M629.720191 291.053738V395.857616a8.66207 8.66207 0 0 0 8.66207 8.663094h101.360552l-110.022622-113.466972z" fill="#FFFFFF" /><path d="M739.741789 418.213128h-101.360552c-12.325532 0-22.352441-10.033052-22.35244-22.358584V291.050666a13.689347 13.689347 0 0 1 8.549442-12.686963c5.166525-2.078487 11.095845-0.842658 14.966132 3.154591l110.023645 113.472091a13.684227 13.684227 0 0 1 2.780873 14.865791 13.688323 13.688323 0 0 1-12.6071 8.356952z m-96.334299-27.378693h63.995905l-63.995905-66.000672v66.000672z" fill="#4E6DC4" /><path d="M478.915193 473.803958s-14.616987-14.813573-34.446573-2.715344c-17.742909 11.549426-14.6047 32.686515-14.604701 32.686515s-39.409346 8.072312-39.409346 50.423281c0.87747 42.282368 42.798407 42.716496 42.798407 42.716496l62.92492 0.067576V551.71344H466.004l45.269041-45.26597 45.262899 45.26597h-30.17902v45.269042l61.100357-0.0686s39.010031 0.033788 44.492937-40.191595c2.606812-43.999424-37.709697-52.670709-37.709697-52.670709s4.587006-65.131393-52.029757-72.556609c-48.532164-5.221815-63.296591 42.308989-63.29659 42.308989z" fill="#4E6DC4" /></svg>